<?xml version="1.0" encoding="utf-8" standalone="no"?>
<!DOCTYPE svg PUBLIC "-//W3C//DTD SVG 1.1//EN"
  "http://www.w3.org/Graphics/SVG/1.1/DTD/svg11.dtd">
<svg xmlns:xlink="http://www.w3.org/1999/xlink" width="576pt" height="342pt" viewBox="0 0 576 342" xmlns="http://www.w3.org/2000/svg" version="1.1">
 <metadata>
  <rdf:RDF xmlns:dc="http://purl.org/dc/elements/1.1/" xmlns:cc="http://creativecommons.org/ns#" xmlns:rdf="http://www.w3.org/1999/02/22-rdf-syntax-ns#">
   <cc:Work>
    <dc:type rdf:resource="http://purl.org/dc/dcmitype/StillImage"/>
    <dc:date>2026-03-27T16:21:20.612018</dc:date>
    <dc:format>image/svg+xml</dc:format>
    <dc:creator>
     <cc:Agent>
      <dc:title>Matplotlib v3.10.8, https://matplotlib.org/</dc:title>
     </cc:Agent>
    </dc:creator>
   </cc:Work>
  </rdf:RDF>
 </metadata>
 <defs>
  <style type="text/css">*{stroke-linejoin: round; stroke-linecap: butt}</style>
 </defs>
 <g id="figure_1">
  <g id="patch_1">
   <path d="M 0 342 
L 576 342 
L 576 0 
L 0 0 
L 0 342 
z
" style="fill: none; opacity: 0"/>
  </g>
  <g id="axes_1">
   <g id="patch_2">
    <path d="M 127.705 304.86 
L 565.2 304.86 
L 565.2 10.8 
L 127.705 10.8 
L 127.705 304.86 
z
" style="fill: none"/>
   </g>
   <g id="matplotlib.axis_1">
    <g id="xtick_1">
     <g id="line2d_1">
      <path d="M 127.705 304.86 
L 127.705 10.8 
" clip-path="url(#pfad217d2f3)" style="fill: none; stroke: #e0e0e0; stroke-width: 0.6; stroke-linecap: square"/>
     </g>
     <g id="line2d_2">
      <defs>
       <path id="m780aacbe82" d="M 0 0 
L 0 3 
" style="stroke: #333333; stroke-width: 0.8"/>
      </defs>
      <g>
       <use xlink:href="#m780aacbe82" x="127.705" y="304.86" style="fill: #333333; stroke: #333333; stroke-width: 0.8"/>
      </g>
     </g>
     <g id="text_1">
      <!-- 0 -->
      <g style="fill: #333333" transform="translate(125.16 317.43875) scale(0.08 -0.08)">
       <defs>
        <path id="DejaVuSans-30" d="M 2034 4250 
Q 1547 4250 1301 3770 
Q 1056 3291 1056 2328 
Q 1056 1369 1301 889 
Q 1547 409 2034 409 
Q 2525 409 2770 889 
Q 3016 1369 3016 2328 
Q 3016 3291 2770 3770 
Q 2525 4250 2034 4250 
z
M 2034 4750 
Q 2819 4750 3233 4129 
Q 3647 3509 3647 2328 
Q 3647 1150 3233 529 
Q 2819 -91 2034 -91 
Q 1250 -91 836 529 
Q 422 1150 422 2328 
Q 422 3509 836 4129 
Q 1250 4750 2034 4750 
z
" transform="scale(0.015625)"/>
       </defs>
       <use xlink:href="#DejaVuSans-30"/>
      </g>
     </g>
    </g>
    <g id="xtick_2">
     <g id="line2d_3">
      <path d="M 186.503261 304.86 
L 186.503261 10.8 
" clip-path="url(#pfad217d2f3)" style="fill: none; stroke: #e0e0e0; stroke-width: 0.6; stroke-linecap: square"/>
     </g>
     <g id="line2d_4">
      <g>
       <use xlink:href="#m780aacbe82" x="186.503261" y="304.86" style="fill: #333333; stroke: #333333; stroke-width: 0.8"/>
      </g>
     </g>
     <g id="text_2">
      <!-- 25 -->
      <g style="fill: #333333" transform="translate(181.413261 317.43875) scale(0.08 -0.08)">
       <defs>
        <path id="DejaVuSans-32" d="M 1228 531 
L 3431 531 
L 3431 0 
L 469 0 
L 469 531 
Q 828 903 1448 1529 
Q 2069 2156 2228 2338 
Q 2531 2678 2651 2914 
Q 2772 3150 2772 3378 
Q 2772 3750 2511 3984 
Q 2250 4219 1831 4219 
Q 1534 4219 1204 4116 
Q 875 4013 500 3803 
L 500 4441 
Q 881 4594 1212 4672 
Q 1544 4750 1819 4750 
Q 2544 4750 2975 4387 
Q 3406 4025 3406 3419 
Q 3406 3131 3298 2873 
Q 3191 2616 2906 2266 
Q 2828 2175 2409 1742 
Q 1991 1309 1228 531 
z
" transform="scale(0.015625)"/>
        <path id="DejaVuSans-35" d="M 691 4666 
L 3169 4666 
L 3169 4134 
L 1269 4134 
L 1269 2991 
Q 1406 3038 1543 3061 
Q 1681 3084 1819 3084 
Q 2600 3084 3056 2656 
Q 3513 2228 3513 1497 
Q 3513 744 3044 326 
Q 2575 -91 1722 -91 
Q 1428 -91 1123 -41 
Q 819 9 494 109 
L 494 744 
Q 775 591 1075 516 
Q 1375 441 1709 441 
Q 2250 441 2565 725 
Q 2881 1009 2881 1497 
Q 2881 1984 2565 2268 
Q 2250 2553 1709 2553 
Q 1456 2553 1204 2497 
Q 953 2441 691 2322 
L 691 4666 
z
" transform="scale(0.015625)"/>
       </defs>
       <use xlink:href="#DejaVuSans-32"/>
       <use xlink:href="#DejaVuSans-35" transform="translate(63.623047 0)"/>
      </g>
     </g>
    </g>
    <g id="xtick_3">
     <g id="line2d_5">
      <path d="M 245.301522 304.86 
L 245.301522 10.8 
" clip-path="url(#pfad217d2f3)" style="fill: none; stroke: #e0e0e0; stroke-width: 0.6; stroke-linecap: square"/>
     </g>
     <g id="line2d_6">
      <g>
       <use xlink:href="#m780aacbe82" x="245.301522" y="304.86" style="fill: #333333; stroke: #333333; stroke-width: 0.8"/>
      </g>
     </g>
     <g id="text_3">
      <!-- 50 -->
      <g style="fill: #333333" transform="translate(240.211522 317.43875) scale(0.08 -0.08)">
       <use xlink:href="#DejaVuSans-35"/>
       <use xlink:href="#DejaVuSans-30" transform="translate(63.623047 0)"/>
      </g>
     </g>
    </g>
    <g id="xtick_4">
     <g id="line2d_7">
      <path d="M 304.099783 304.86 
L 304.099783 10.8 
" clip-path="url(#pfad217d2f3)" style="fill: none; stroke: #e0e0e0; stroke-width: 0.6; stroke-linecap: square"/>
     </g>
     <g id="line2d_8">
      <g>
       <use xlink:href="#m780aacbe82" x="304.099783" y="304.86" style="fill: #333333; stroke: #333333; stroke-width: 0.8"/>
      </g>
     </g>
     <g id="text_4">
      <!-- 75 -->
      <g style="fill: #333333" transform="translate(299.009783 317.43875) scale(0.08 -0.08)">
       <defs>
        <path id="DejaVuSans-37" d="M 525 4666 
L 3525 4666 
L 3525 4397 
L 1831 0 
L 1172 0 
L 2766 4134 
L 525 4134 
L 525 4666 
z
" transform="scale(0.015625)"/>
       </defs>
       <use xlink:href="#DejaVuSans-37"/>
       <use xlink:href="#DejaVuSans-35" transform="translate(63.623047 0)"/>
      </g>
     </g>
    </g>
    <g id="xtick_5">
     <g id="line2d_9">
      <path d="M 362.898044 304.86 
L 362.898044 10.8 
" clip-path="url(#pfad217d2f3)" style="fill: none; stroke: #e0e0e0; stroke-width: 0.6; stroke-linecap: square"/>
     </g>
     <g id="line2d_10">
      <g>
       <use xlink:href="#m780aacbe82" x="362.898044" y="304.86" style="fill: #333333; stroke: #333333; stroke-width: 0.8"/>
      </g>
     </g>
     <g id="text_5">
      <!-- 100 -->
      <g style="fill: #333333" transform="translate(355.263044 317.43875) scale(0.08 -0.08)">
       <defs>
        <path id="DejaVuSans-31" d="M 794 531 
L 1825 531 
L 1825 4091 
L 703 3866 
L 703 4441 
L 1819 4666 
L 2450 4666 
L 2450 531 
L 3481 531 
L 3481 0 
L 794 0 
L 794 531 
z
" transform="scale(0.015625)"/>
       </defs>
       <use xlink:href="#DejaVuSans-31"/>
       <use xlink:href="#DejaVuSans-30" transform="translate(63.623047 0)"/>
       <use xlink:href="#DejaVuSans-30" transform="translate(127.246094 0)"/>
      </g>
     </g>
    </g>
    <g id="xtick_6">
     <g id="line2d_11">
      <path d="M 421.696305 304.86 
L 421.696305 10.8 
" clip-path="url(#pfad217d2f3)" style="fill: none; stroke: #e0e0e0; stroke-width: 0.6; stroke-linecap: square"/>
     </g>
     <g id="line2d_12">
      <g>
       <use xlink:href="#m780aacbe82" x="421.696305" y="304.86" style="fill: #333333; stroke: #333333; stroke-width: 0.8"/>
      </g>
     </g>
     <g id="text_6">
      <!-- 125 -->
      <g style="fill: #333333" transform="translate(414.061305 317.43875) scale(0.08 -0.08)">
       <use xlink:href="#DejaVuSans-31"/>
       <use xlink:href="#DejaVuSans-32" transform="translate(63.623047 0)"/>
       <use xlink:href="#DejaVuSans-35" transform="translate(127.246094 0)"/>
      </g>
     </g>
    </g>
    <g id="xtick_7">
     <g id="line2d_13">
      <path d="M 480.494567 304.86 
L 480.494567 10.8 
" clip-path="url(#pfad217d2f3)" style="fill: none; stroke: #e0e0e0; stroke-width: 0.6; stroke-linecap: square"/>
     </g>
     <g id="line2d_14">
      <g>
       <use xlink:href="#m780aacbe82" x="480.494567" y="304.86" style="fill: #333333; stroke: #333333; stroke-width: 0.8"/>
      </g>
     </g>
     <g id="text_7">
      <!-- 150 -->
      <g style="fill: #333333" transform="translate(472.859567 317.43875) scale(0.08 -0.08)">
       <use xlink:href="#DejaVuSans-31"/>
       <use xlink:href="#DejaVuSans-35" transform="translate(63.623047 0)"/>
       <use xlink:href="#DejaVuSans-30" transform="translate(127.246094 0)"/>
      </g>
     </g>
    </g>
    <g id="xtick_8">
     <g id="line2d_15">
      <path d="M 539.292828 304.86 
L 539.292828 10.8 
" clip-path="url(#pfad217d2f3)" style="fill: none; stroke: #e0e0e0; stroke-width: 0.6; stroke-linecap: square"/>
     </g>
     <g id="line2d_16">
      <g>
       <use xlink:href="#m780aacbe82" x="539.292828" y="304.86" style="fill: #333333; stroke: #333333; stroke-width: 0.8"/>
      </g>
     </g>
     <g id="text_8">
      <!-- 175 -->
      <g style="fill: #333333" transform="translate(531.657828 317.43875) scale(0.08 -0.08)">
       <use xlink:href="#DejaVuSans-31"/>
       <use xlink:href="#DejaVuSans-37" transform="translate(63.623047 0)"/>
       <use xlink:href="#DejaVuSans-35" transform="translate(127.246094 0)"/>
      </g>
     </g>
    </g>
    <g id="text_9">
     <!-- Bytes per instance (lower is better) -->
     <g style="fill: #333333" transform="translate(266.953672 329.941094) scale(0.09 -0.09)">
      <defs>
       <path id="DejaVuSans-42" d="M 1259 2228 
L 1259 519 
L 2272 519 
Q 2781 519 3026 730 
Q 3272 941 3272 1375 
Q 3272 1813 3026 2020 
Q 2781 2228 2272 2228 
L 1259 2228 
z
M 1259 4147 
L 1259 2741 
L 2194 2741 
Q 2656 2741 2882 2914 
Q 3109 3088 3109 3444 
Q 3109 3797 2882 3972 
Q 2656 4147 2194 4147 
L 1259 4147 
z
M 628 4666 
L 2241 4666 
Q 2963 4666 3353 4366 
Q 3744 4066 3744 3513 
Q 3744 3084 3544 2831 
Q 3344 2578 2956 2516 
Q 3422 2416 3680 2098 
Q 3938 1781 3938 1306 
Q 3938 681 3513 340 
Q 3088 0 2303 0 
L 628 0 
L 628 4666 
z
" transform="scale(0.015625)"/>
       <path id="DejaVuSans-79" d="M 2059 -325 
Q 1816 -950 1584 -1140 
Q 1353 -1331 966 -1331 
L 506 -1331 
L 506 -850 
L 844 -850 
Q 1081 -850 1212 -737 
Q 1344 -625 1503 -206 
L 1606 56 
L 191 3500 
L 800 3500 
L 1894 763 
L 2988 3500 
L 3597 3500 
L 2059 -325 
z
" transform="scale(0.015625)"/>
       <path id="DejaVuSans-74" d="M 1172 4494 
L 1172 3500 
L 2356 3500 
L 2356 3053 
L 1172 3053 
L 1172 1153 
Q 1172 725 1289 603 
Q 1406 481 1766 481 
L 2356 481 
L 2356 0 
L 1766 0 
Q 1100 0 847 248 
Q 594 497 594 1153 
L 594 3053 
L 172 3053 
L 172 3500 
L 594 3500 
L 594 4494 
L 1172 4494 
z
" transform="scale(0.015625)"/>
       <path id="DejaVuSans-65" d="M 3597 1894 
L 3597 1613 
L 953 1613 
Q 991 1019 1311 708 
Q 1631 397 2203 397 
Q 2534 397 2845 478 
Q 3156 559 3463 722 
L 3463 178 
Q 3153 47 2828 -22 
Q 2503 -91 2169 -91 
Q 1331 -91 842 396 
Q 353 884 353 1716 
Q 353 2575 817 3079 
Q 1281 3584 2069 3584 
Q 2775 3584 3186 3129 
Q 3597 2675 3597 1894 
z
M 3022 2063 
Q 3016 2534 2758 2815 
Q 2500 3097 2075 3097 
Q 1594 3097 1305 2825 
Q 1016 2553 972 2059 
L 3022 2063 
z
" transform="scale(0.015625)"/>
       <path id="DejaVuSans-73" d="M 2834 3397 
L 2834 2853 
Q 2591 2978 2328 3040 
Q 2066 3103 1784 3103 
Q 1356 3103 1142 2972 
Q 928 2841 928 2578 
Q 928 2378 1081 2264 
Q 1234 2150 1697 2047 
L 1894 2003 
Q 2506 1872 2764 1633 
Q 3022 1394 3022 966 
Q 3022 478 2636 193 
Q 2250 -91 1575 -91 
Q 1294 -91 989 -36 
Q 684 19 347 128 
L 347 722 
Q 666 556 975 473 
Q 1284 391 1588 391 
Q 1994 391 2212 530 
Q 2431 669 2431 922 
Q 2431 1156 2273 1281 
Q 2116 1406 1581 1522 
L 1381 1569 
Q 847 1681 609 1914 
Q 372 2147 372 2553 
Q 372 3047 722 3315 
Q 1072 3584 1716 3584 
Q 2034 3584 2315 3537 
Q 2597 3491 2834 3397 
z
" transform="scale(0.015625)"/>
       <path id="DejaVuSans-20" transform="scale(0.015625)"/>
       <path id="DejaVuSans-70" d="M 1159 525 
L 1159 -1331 
L 581 -1331 
L 581 3500 
L 1159 3500 
L 1159 2969 
Q 1341 3281 1617 3432 
Q 1894 3584 2278 3584 
Q 2916 3584 3314 3078 
Q 3713 2572 3713 1747 
Q 3713 922 3314 415 
Q 2916 -91 2278 -91 
Q 1894 -91 1617 61 
Q 1341 213 1159 525 
z
M 3116 1747 
Q 3116 2381 2855 2742 
Q 2594 3103 2138 3103 
Q 1681 3103 1420 2742 
Q 1159 2381 1159 1747 
Q 1159 1113 1420 752 
Q 1681 391 2138 391 
Q 2594 391 2855 752 
Q 3116 1113 3116 1747 
z
" transform="scale(0.015625)"/>
       <path id="DejaVuSans-72" d="M 2631 2963 
Q 2534 3019 2420 3045 
Q 2306 3072 2169 3072 
Q 1681 3072 1420 2755 
Q 1159 2438 1159 1844 
L 1159 0 
L 581 0 
L 581 3500 
L 1159 3500 
L 1159 2956 
Q 1341 3275 1631 3429 
Q 1922 3584 2338 3584 
Q 2397 3584 2469 3576 
Q 2541 3569 2628 3553 
L 2631 2963 
z
" transform="scale(0.015625)"/>
       <path id="DejaVuSans-69" d="M 603 3500 
L 1178 3500 
L 1178 0 
L 603 0 
L 603 3500 
z
M 603 4863 
L 1178 4863 
L 1178 4134 
L 603 4134 
L 603 4863 
z
" transform="scale(0.015625)"/>
       <path id="DejaVuSans-6e" d="M 3513 2113 
L 3513 0 
L 2938 0 
L 2938 2094 
Q 2938 2591 2744 2837 
Q 2550 3084 2163 3084 
Q 1697 3084 1428 2787 
Q 1159 2491 1159 1978 
L 1159 0 
L 581 0 
L 581 3500 
L 1159 3500 
L 1159 2956 
Q 1366 3272 1645 3428 
Q 1925 3584 2291 3584 
Q 2894 3584 3203 3211 
Q 3513 2838 3513 2113 
z
" transform="scale(0.015625)"/>
       <path id="DejaVuSans-61" d="M 2194 1759 
Q 1497 1759 1228 1600 
Q 959 1441 959 1056 
Q 959 750 1161 570 
Q 1363 391 1709 391 
Q 2188 391 2477 730 
Q 2766 1069 2766 1631 
L 2766 1759 
L 2194 1759 
z
M 3341 1997 
L 3341 0 
L 2766 0 
L 2766 531 
Q 2569 213 2275 61 
Q 1981 -91 1556 -91 
Q 1019 -91 701 211 
Q 384 513 384 1019 
Q 384 1609 779 1909 
Q 1175 2209 1959 2209 
L 2766 2209 
L 2766 2266 
Q 2766 2663 2505 2880 
Q 2244 3097 1772 3097 
Q 1472 3097 1187 3025 
Q 903 2953 641 2809 
L 641 3341 
Q 956 3463 1253 3523 
Q 1550 3584 1831 3584 
Q 2591 3584 2966 3190 
Q 3341 2797 3341 1997 
z
" transform="scale(0.015625)"/>
       <path id="DejaVuSans-63" d="M 3122 3366 
L 3122 2828 
Q 2878 2963 2633 3030 
Q 2388 3097 2138 3097 
Q 1578 3097 1268 2742 
Q 959 2388 959 1747 
Q 959 1106 1268 751 
Q 1578 397 2138 397 
Q 2388 397 2633 464 
Q 2878 531 3122 666 
L 3122 134 
Q 2881 22 2623 -34 
Q 2366 -91 2075 -91 
Q 1284 -91 818 406 
Q 353 903 353 1747 
Q 353 2603 823 3093 
Q 1294 3584 2113 3584 
Q 2378 3584 2631 3529 
Q 2884 3475 3122 3366 
z
" transform="scale(0.015625)"/>
       <path id="DejaVuSans-28" d="M 1984 4856 
Q 1566 4138 1362 3434 
Q 1159 2731 1159 2009 
Q 1159 1288 1364 580 
Q 1569 -128 1984 -844 
L 1484 -844 
Q 1016 -109 783 600 
Q 550 1309 550 2009 
Q 550 2706 781 3412 
Q 1013 4119 1484 4856 
L 1984 4856 
z
" transform="scale(0.015625)"/>
       <path id="DejaVuSans-6c" d="M 603 4863 
L 1178 4863 
L 1178 0 
L 603 0 
L 603 4863 
z
" transform="scale(0.015625)"/>
       <path id="DejaVuSans-6f" d="M 1959 3097 
Q 1497 3097 1228 2736 
Q 959 2375 959 1747 
Q 959 1119 1226 758 
Q 1494 397 1959 397 
Q 2419 397 2687 759 
Q 2956 1122 2956 1747 
Q 2956 2369 2687 2733 
Q 2419 3097 1959 3097 
z
M 1959 3584 
Q 2709 3584 3137 3096 
Q 3566 2609 3566 1747 
Q 3566 888 3137 398 
Q 2709 -91 1959 -91 
Q 1206 -91 779 398 
Q 353 888 353 1747 
Q 353 2609 779 3096 
Q 1206 3584 1959 3584 
z
" transform="scale(0.015625)"/>
       <path id="DejaVuSans-77" d="M 269 3500 
L 844 3500 
L 1563 769 
L 2278 3500 
L 2956 3500 
L 3675 769 
L 4391 3500 
L 4966 3500 
L 4050 0 
L 3372 0 
L 2619 2869 
L 1863 0 
L 1184 0 
L 269 3500 
z
" transform="scale(0.015625)"/>
       <path id="DejaVuSans-62" d="M 3116 1747 
Q 3116 2381 2855 2742 
Q 2594 3103 2138 3103 
Q 1681 3103 1420 2742 
Q 1159 2381 1159 1747 
Q 1159 1113 1420 752 
Q 1681 391 2138 391 
Q 2594 391 2855 752 
Q 3116 1113 3116 1747 
z
M 1159 2969 
Q 1341 3281 1617 3432 
Q 1894 3584 2278 3584 
Q 2916 3584 3314 3078 
Q 3713 2572 3713 1747 
Q 3713 922 3314 415 
Q 2916 -91 2278 -91 
Q 1894 -91 1617 61 
Q 1341 213 1159 525 
L 1159 0 
L 581 0 
L 581 4863 
L 1159 4863 
L 1159 2969 
z
" transform="scale(0.015625)"/>
       <path id="DejaVuSans-29" d="M 513 4856 
L 1013 4856 
Q 1481 4119 1714 3412 
Q 1947 2706 1947 2009 
Q 1947 1309 1714 600 
Q 1481 -109 1013 -844 
L 513 -844 
Q 928 -128 1133 580 
Q 1338 1288 1338 2009 
Q 1338 2731 1133 3434 
Q 928 4138 513 4856 
z
" transform="scale(0.015625)"/>
      </defs>
      <use xlink:href="#DejaVuSans-42"/>
      <use xlink:href="#DejaVuSans-79" transform="translate(68.603516 0)"/>
      <use xlink:href="#DejaVuSans-74" transform="translate(127.783203 0)"/>
      <use xlink:href="#DejaVuSans-65" transform="translate(166.992188 0)"/>
      <use xlink:href="#DejaVuSans-73" transform="translate(228.515625 0)"/>
      <use xlink:href="#DejaVuSans-20" transform="translate(280.615234 0)"/>
      <use xlink:href="#DejaVuSans-70" transform="translate(312.402344 0)"/>
      <use xlink:href="#DejaVuSans-65" transform="translate(375.878906 0)"/>
      <use xlink:href="#DejaVuSans-72" transform="translate(437.402344 0)"/>
      <use xlink:href="#DejaVuSans-20" transform="translate(478.515625 0)"/>
      <use xlink:href="#DejaVuSans-69" transform="translate(510.302734 0)"/>
      <use xlink:href="#DejaVuSans-6e" transform="translate(538.085938 0)"/>
      <use xlink:href="#DejaVuSans-73" transform="translate(601.464844 0)"/>
      <use xlink:href="#DejaVuSans-74" transform="translate(653.564453 0)"/>
      <use xlink:href="#DejaVuSans-61" transform="translate(692.773438 0)"/>
      <use xlink:href="#DejaVuSans-6e" transform="translate(754.052734 0)"/>
      <use xlink:href="#DejaVuSans-63" transform="translate(817.431641 0)"/>
      <use xlink:href="#DejaVuSans-65" transform="translate(872.412109 0)"/>
      <use xlink:href="#DejaVuSans-20" transform="translate(933.935547 0)"/>
      <use xlink:href="#DejaVuSans-28" transform="translate(965.722656 0)"/>
      <use xlink:href="#DejaVuSans-6c" transform="translate(1004.736328 0)"/>
      <use xlink:href="#DejaVuSans-6f" transform="translate(1032.519531 0)"/>
      <use xlink:href="#DejaVuSans-77" transform="translate(1093.701172 0)"/>
      <use xlink:href="#DejaVuSans-65" transform="translate(1175.488281 0)"/>
      <use xlink:href="#DejaVuSans-72" transform="translate(1237.011719 0)"/>
      <use xlink:href="#DejaVuSans-20" transform="translate(1278.125 0)"/>
      <use xlink:href="#DejaVuSans-69" transform="translate(1309.912109 0)"/>
      <use xlink:href="#DejaVuSans-73" transform="translate(1337.695312 0)"/>
      <use xlink:href="#DejaVuSans-20" transform="translate(1389.794922 0)"/>
      <use xlink:href="#DejaVuSans-62" transform="translate(1421.582031 0)"/>
      <use xlink:href="#DejaVuSans-65" transform="translate(1485.058594 0)"/>
      <use xlink:href="#DejaVuSans-74" transform="translate(1546.582031 0)"/>
      <use xlink:href="#DejaVuSans-74" transform="translate(1585.791016 0)"/>
      <use xlink:href="#DejaVuSans-65" transform="translate(1625 0)"/>
      <use xlink:href="#DejaVuSans-72" transform="translate(1686.523438 0)"/>
      <use xlink:href="#DejaVuSans-29" transform="translate(1727.636719 0)"/>
     </g>
    </g>
   </g>
   <g id="matplotlib.axis_2">
    <g id="ytick_1">
     <g id="line2d_17"/>
     <g id="text_10">
      <!-- whenever.Instant -->
      <g style="fill: #333333" transform="translate(50.255703 43.552842) scale(0.085 -0.085)">
       <defs>
        <path id="DejaVuSans-68" d="M 3513 2113 
L 3513 0 
L 2938 0 
L 2938 2094 
Q 2938 2591 2744 2837 
Q 2550 3084 2163 3084 
Q 1697 3084 1428 2787 
Q 1159 2491 1159 1978 
L 1159 0 
L 581 0 
L 581 4863 
L 1159 4863 
L 1159 2956 
Q 1366 3272 1645 3428 
Q 1925 3584 2291 3584 
Q 2894 3584 3203 3211 
Q 3513 2838 3513 2113 
z
" transform="scale(0.015625)"/>
        <path id="DejaVuSans-76" d="M 191 3500 
L 800 3500 
L 1894 563 
L 2988 3500 
L 3597 3500 
L 2284 0 
L 1503 0 
L 191 3500 
z
" transform="scale(0.015625)"/>
        <path id="DejaVuSans-2e" d="M 684 794 
L 1344 794 
L 1344 0 
L 684 0 
L 684 794 
z
" transform="scale(0.015625)"/>
        <path id="DejaVuSans-49" d="M 628 4666 
L 1259 4666 
L 1259 0 
L 628 0 
L 628 4666 
z
" transform="scale(0.015625)"/>
       </defs>
       <use xlink:href="#DejaVuSans-77"/>
       <use xlink:href="#DejaVuSans-68" transform="translate(81.787109 0)"/>
       <use xlink:href="#DejaVuSans-65" transform="translate(145.166016 0)"/>
       <use xlink:href="#DejaVuSans-6e" transform="translate(206.689453 0)"/>
       <use xlink:href="#DejaVuSans-65" transform="translate(270.068359 0)"/>
       <use xlink:href="#DejaVuSans-76" transform="translate(331.591797 0)"/>
       <use xlink:href="#DejaVuSans-65" transform="translate(390.771484 0)"/>
       <use xlink:href="#DejaVuSans-72" transform="translate(452.294922 0)"/>
       <use xlink:href="#DejaVuSans-2e" transform="translate(484.283203 0)"/>
       <use xlink:href="#DejaVuSans-49" transform="translate(516.070312 0)"/>
       <use xlink:href="#DejaVuSans-6e" transform="translate(545.5625 0)"/>
       <use xlink:href="#DejaVuSans-73" transform="translate(608.941406 0)"/>
       <use xlink:href="#DejaVuSans-74" transform="translate(661.041016 0)"/>
       <use xlink:href="#DejaVuSans-61" transform="translate(700.25 0)"/>
       <use xlink:href="#DejaVuSans-6e" transform="translate(761.529297 0)"/>
       <use xlink:href="#DejaVuSans-74" transform="translate(824.908203 0)"/>
      </g>
     </g>
    </g>
    <g id="ytick_2">
     <g id="line2d_18"/>
     <g id="text_11">
      <!-- datetime (UTC) -->
      <g style="fill: #333333" transform="translate(59.151484 102.306089) scale(0.085 -0.085)">
       <defs>
        <path id="DejaVuSans-64" d="M 2906 2969 
L 2906 4863 
L 3481 4863 
L 3481 0 
L 2906 0 
L 2906 525 
Q 2725 213 2448 61 
Q 2172 -91 1784 -91 
Q 1150 -91 751 415 
Q 353 922 353 1747 
Q 353 2572 751 3078 
Q 1150 3584 1784 3584 
Q 2172 3584 2448 3432 
Q 2725 3281 2906 2969 
z
M 947 1747 
Q 947 1113 1208 752 
Q 1469 391 1925 391 
Q 2381 391 2643 752 
Q 2906 1113 2906 1747 
Q 2906 2381 2643 2742 
Q 2381 3103 1925 3103 
Q 1469 3103 1208 2742 
Q 947 2381 947 1747 
z
" transform="scale(0.015625)"/>
        <path id="DejaVuSans-6d" d="M 3328 2828 
Q 3544 3216 3844 3400 
Q 4144 3584 4550 3584 
Q 5097 3584 5394 3201 
Q 5691 2819 5691 2113 
L 5691 0 
L 5113 0 
L 5113 2094 
Q 5113 2597 4934 2840 
Q 4756 3084 4391 3084 
Q 3944 3084 3684 2787 
Q 3425 2491 3425 1978 
L 3425 0 
L 2847 0 
L 2847 2094 
Q 2847 2600 2669 2842 
Q 2491 3084 2119 3084 
Q 1678 3084 1418 2786 
Q 1159 2488 1159 1978 
L 1159 0 
L 581 0 
L 581 3500 
L 1159 3500 
L 1159 2956 
Q 1356 3278 1631 3431 
Q 1906 3584 2284 3584 
Q 2666 3584 2933 3390 
Q 3200 3197 3328 2828 
z
" transform="scale(0.015625)"/>
        <path id="DejaVuSans-55" d="M 556 4666 
L 1191 4666 
L 1191 1831 
Q 1191 1081 1462 751 
Q 1734 422 2344 422 
Q 2950 422 3222 751 
Q 3494 1081 3494 1831 
L 3494 4666 
L 4128 4666 
L 4128 1753 
Q 4128 841 3676 375 
Q 3225 -91 2344 -91 
Q 1459 -91 1007 375 
Q 556 841 556 1753 
L 556 4666 
z
" transform="scale(0.015625)"/>
        <path id="DejaVuSans-54" d="M -19 4666 
L 3928 4666 
L 3928 4134 
L 2272 4134 
L 2272 0 
L 1638 0 
L 1638 4134 
L -19 4134 
L -19 4666 
z
" transform="scale(0.015625)"/>
        <path id="DejaVuSans-43" d="M 4122 4306 
L 4122 3641 
Q 3803 3938 3442 4084 
Q 3081 4231 2675 4231 
Q 1875 4231 1450 3742 
Q 1025 3253 1025 2328 
Q 1025 1406 1450 917 
Q 1875 428 2675 428 
Q 3081 428 3442 575 
Q 3803 722 4122 1019 
L 4122 359 
Q 3791 134 3420 21 
Q 3050 -91 2638 -91 
Q 1578 -91 968 557 
Q 359 1206 359 2328 
Q 359 3453 968 4101 
Q 1578 4750 2638 4750 
Q 3056 4750 3426 4639 
Q 3797 4528 4122 4306 
z
" transform="scale(0.015625)"/>
       </defs>
       <use xlink:href="#DejaVuSans-64"/>
       <use xlink:href="#DejaVuSans-61" transform="translate(63.476562 0)"/>
       <use xlink:href="#DejaVuSans-74" transform="translate(124.755859 0)"/>
       <use xlink:href="#DejaVuSans-65" transform="translate(163.964844 0)"/>
       <use xlink:href="#DejaVuSans-74" transform="translate(225.488281 0)"/>
       <use xlink:href="#DejaVuSans-69" transform="translate(264.697266 0)"/>
       <use xlink:href="#DejaVuSans-6d" transform="translate(292.480469 0)"/>
       <use xlink:href="#DejaVuSans-65" transform="translate(389.892578 0)"/>
       <use xlink:href="#DejaVuSans-20" transform="translate(451.416016 0)"/>
       <use xlink:href="#DejaVuSans-28" transform="translate(483.203125 0)"/>
       <use xlink:href="#DejaVuSans-55" transform="translate(522.216797 0)"/>
       <use xlink:href="#DejaVuSans-54" transform="translate(595.410156 0)"/>
       <use xlink:href="#DejaVuSans-43" transform="translate(650.619141 0)"/>
       <use xlink:href="#DejaVuSans-29" transform="translate(720.443359 0)"/>
      </g>
     </g>
    </g>
    <g id="ytick_3">
     <g id="line2d_19"/>
     <g id="text_12">
      <!-- whenever.Instant (py) -->
      <g style="fill: #333333" transform="translate(30.494531 161.059336) scale(0.085 -0.085)">
       <use xlink:href="#DejaVuSans-77"/>
       <use xlink:href="#DejaVuSans-68" transform="translate(81.787109 0)"/>
       <use xlink:href="#DejaVuSans-65" transform="translate(145.166016 0)"/>
       <use xlink:href="#DejaVuSans-6e" transform="translate(206.689453 0)"/>
       <use xlink:href="#DejaVuSans-65" transform="translate(270.068359 0)"/>
       <use xlink:href="#DejaVuSans-76" transform="translate(331.591797 0)"/>
       <use xlink:href="#DejaVuSans-65" transform="translate(390.771484 0)"/>
       <use xlink:href="#DejaVuSans-72" transform="translate(452.294922 0)"/>
       <use xlink:href="#DejaVuSans-2e" transform="translate(484.283203 0)"/>
       <use xlink:href="#DejaVuSans-49" transform="translate(516.070312 0)"/>
       <use xlink:href="#DejaVuSans-6e" transform="translate(545.5625 0)"/>
       <use xlink:href="#DejaVuSans-73" transform="translate(608.941406 0)"/>
       <use xlink:href="#DejaVuSans-74" transform="translate(661.041016 0)"/>
       <use xlink:href="#DejaVuSans-61" transform="translate(700.25 0)"/>
       <use xlink:href="#DejaVuSans-6e" transform="translate(761.529297 0)"/>
       <use xlink:href="#DejaVuSans-74" transform="translate(824.908203 0)"/>
       <use xlink:href="#DejaVuSans-20" transform="translate(864.117188 0)"/>
       <use xlink:href="#DejaVuSans-28" transform="translate(895.904297 0)"/>
       <use xlink:href="#DejaVuSans-70" transform="translate(934.917969 0)"/>
       <use xlink:href="#DejaVuSans-79" transform="translate(998.394531 0)"/>
       <use xlink:href="#DejaVuSans-29" transform="translate(1057.574219 0)"/>
      </g>
     </g>
    </g>
    <g id="ytick_4">
     <g id="line2d_20"/>
     <g id="text_13">
      <!-- arrow.Arrow (UTC) -->
      <g style="fill: #333333" transform="translate(46.97125 219.812583) scale(0.085 -0.085)">
       <defs>
        <path id="DejaVuSans-41" d="M 2188 4044 
L 1331 1722 
L 3047 1722 
L 2188 4044 
z
M 1831 4666 
L 2547 4666 
L 4325 0 
L 3669 0 
L 3244 1197 
L 1141 1197 
L 716 0 
L 50 0 
L 1831 4666 
z
" transform="scale(0.015625)"/>
       </defs>
       <use xlink:href="#DejaVuSans-61"/>
       <use xlink:href="#DejaVuSans-72" transform="translate(61.279297 0)"/>
       <use xlink:href="#DejaVuSans-72" transform="translate(100.642578 0)"/>
       <use xlink:href="#DejaVuSans-6f" transform="translate(139.505859 0)"/>
       <use xlink:href="#DejaVuSans-77" transform="translate(200.6875 0)"/>
       <use xlink:href="#DejaVuSans-2e" transform="translate(273.349609 0)"/>
       <use xlink:href="#DejaVuSans-41" transform="translate(305.136719 0)"/>
       <use xlink:href="#DejaVuSans-72" transform="translate(373.544922 0)"/>
       <use xlink:href="#DejaVuSans-72" transform="translate(412.908203 0)"/>
       <use xlink:href="#DejaVuSans-6f" transform="translate(451.771484 0)"/>
       <use xlink:href="#DejaVuSans-77" transform="translate(512.953125 0)"/>
       <use xlink:href="#DejaVuSans-20" transform="translate(594.740234 0)"/>
       <use xlink:href="#DejaVuSans-28" transform="translate(626.527344 0)"/>
       <use xlink:href="#DejaVuSans-55" transform="translate(665.541016 0)"/>
       <use xlink:href="#DejaVuSans-54" transform="translate(738.734375 0)"/>
       <use xlink:href="#DejaVuSans-43" transform="translate(793.943359 0)"/>
       <use xlink:href="#DejaVuSans-29" transform="translate(863.767578 0)"/>
      </g>
     </g>
    </g>
    <g id="ytick_5">
     <g id="line2d_21"/>
     <g id="text_14">
      <!-- pendulum.DateTime (UTC) -->
      <g style="fill: #333333" transform="translate(10.883437 278.565829) scale(0.085 -0.085)">
       <defs>
        <path id="DejaVuSans-75" d="M 544 1381 
L 544 3500 
L 1119 3500 
L 1119 1403 
Q 1119 906 1312 657 
Q 1506 409 1894 409 
Q 2359 409 2629 706 
Q 2900 1003 2900 1516 
L 2900 3500 
L 3475 3500 
L 3475 0 
L 2900 0 
L 2900 538 
Q 2691 219 2414 64 
Q 2138 -91 1772 -91 
Q 1169 -91 856 284 
Q 544 659 544 1381 
z
M 1991 3584 
L 1991 3584 
z
" transform="scale(0.015625)"/>
        <path id="DejaVuSans-44" d="M 1259 4147 
L 1259 519 
L 2022 519 
Q 2988 519 3436 956 
Q 3884 1394 3884 2338 
Q 3884 3275 3436 3711 
Q 2988 4147 2022 4147 
L 1259 4147 
z
M 628 4666 
L 1925 4666 
Q 3281 4666 3915 4102 
Q 4550 3538 4550 2338 
Q 4550 1131 3912 565 
Q 3275 0 1925 0 
L 628 0 
L 628 4666 
z
" transform="scale(0.015625)"/>
       </defs>
       <use xlink:href="#DejaVuSans-70"/>
       <use xlink:href="#DejaVuSans-65" transform="translate(63.476562 0)"/>
       <use xlink:href="#DejaVuSans-6e" transform="translate(125 0)"/>
       <use xlink:href="#DejaVuSans-64" transform="translate(188.378906 0)"/>
       <use xlink:href="#DejaVuSans-75" transform="translate(251.855469 0)"/>
       <use xlink:href="#DejaVuSans-6c" transform="translate(315.234375 0)"/>
       <use xlink:href="#DejaVuSans-75" transform="translate(343.017578 0)"/>
       <use xlink:href="#DejaVuSans-6d" transform="translate(406.396484 0)"/>
       <use xlink:href="#DejaVuSans-2e" transform="translate(503.808594 0)"/>
       <use xlink:href="#DejaVuSans-44" transform="translate(535.595703 0)"/>
       <use xlink:href="#DejaVuSans-61" transform="translate(612.597656 0)"/>
       <use xlink:href="#DejaVuSans-74" transform="translate(673.876953 0)"/>
       <use xlink:href="#DejaVuSans-65" transform="translate(713.085938 0)"/>
       <use xlink:href="#DejaVuSans-54" transform="translate(774.609375 0)"/>
       <use xlink:href="#DejaVuSans-69" transform="translate(832.568359 0)"/>
       <use xlink:href="#DejaVuSans-6d" transform="translate(860.351562 0)"/>
       <use xlink:href="#DejaVuSans-65" transform="translate(957.763672 0)"/>
       <use xlink:href="#DejaVuSans-20" transform="translate(1019.287109 0)"/>
       <use xlink:href="#DejaVuSans-28" transform="translate(1051.074219 0)"/>
       <use xlink:href="#DejaVuSans-55" transform="translate(1090.087891 0)"/>
       <use xlink:href="#DejaVuSans-54" transform="translate(1163.28125 0)"/>
       <use xlink:href="#DejaVuSans-43" transform="translate(1218.490234 0)"/>
       <use xlink:href="#DejaVuSans-29" transform="translate(1288.314453 0)"/>
      </g>
     </g>
    </g>
   </g>
   <g id="patch_3">
    <path d="M 127.705 304.86 
L 565.2 304.86 
" style="fill: none; stroke: #c8c8c8; stroke-width: 0.8; stroke-linejoin: miter; stroke-linecap: square"/>
   </g>
   <g id="patch_4">
    <path d="M 127.705 56.480649 
L 202.966774 56.480649 
L 202.966774 24.166364 
L 127.705 24.166364 
z
" clip-path="url(#pfad217d2f3)" style="fill: #0072b2"/>
   </g>
   <g id="patch_5">
    <path d="M 127.705 115.233896 
L 240.597661 115.233896 
L 240.597661 82.91961 
L 127.705 82.91961 
z
" clip-path="url(#pfad217d2f3)" style="fill: #009e73"/>
   </g>
   <g id="patch_6">
    <path d="M 127.705 173.987143 
L 240.597661 173.987143 
L 240.597661 141.672857 
L 127.705 141.672857 
z
" clip-path="url(#pfad217d2f3)" style="fill: #56b4e9"/>
   </g>
   <g id="patch_7">
    <path d="M 127.705 232.74039 
L 240.597661 232.74039 
L 240.597661 200.426104 
L 127.705 200.426104 
z
" clip-path="url(#pfad217d2f3)" style="fill: #e69f00"/>
   </g>
   <g id="patch_8">
    <path d="M 127.705 291.493636 
L 315.859435 291.493636 
L 315.859435 259.179351 
L 127.705 259.179351 
z
" clip-path="url(#pfad217d2f3)" style="fill: #d55e00"/>
   </g>
   <g id="patch_9">
    <path d="M 202.966774 56.480649 
L 202.966774 56.480649 
L 202.966774 24.166364 
L 202.966774 24.166364 
z
" clip-path="url(#pfad217d2f3)" style="fill: #0072b2; opacity: 0.4"/>
   </g>
   <g id="patch_10">
    <path d="M 240.597661 115.233896 
L 240.597661 115.233896 
L 240.597661 82.91961 
L 240.597661 82.91961 
z
" clip-path="url(#pfad217d2f3)" style="fill: #009e73; opacity: 0.4"/>
   </g>
   <g id="patch_11">
    <path d="M 240.597661 173.987143 
L 428.70694 173.987143 
L 428.70694 141.672857 
L 240.597661 141.672857 
z
" clip-path="url(#pfad217d2f3)" style="fill: #56b4e9; opacity: 0.4"/>
   </g>
   <g id="patch_12">
    <path d="M 240.597661 232.74039 
L 429.42569 232.74039 
L 429.42569 200.426104 
L 240.597661 200.426104 
z
" clip-path="url(#pfad217d2f3)" style="fill: #e69f00; opacity: 0.4"/>
   </g>
   <g id="patch_13">
    <path d="M 315.859435 291.493636 
L 372.973714 291.493636 
L 372.973714 259.179351 
L 315.859435 259.179351 
z
" clip-path="url(#pfad217d2f3)" style="fill: #d55e00; opacity: 0.4"/>
   </g>
   <g id="text_15">
    <!-- 32 B -->
    <g style="fill: #333333" transform="translate(209.001188 42.806944) scale(0.09 -0.09)">
     <defs>
      <path id="DejaVuSans-33" d="M 2597 2516 
Q 3050 2419 3304 2112 
Q 3559 1806 3559 1356 
Q 3559 666 3084 287 
Q 2609 -91 1734 -91 
Q 1441 -91 1130 -33 
Q 819 25 488 141 
L 488 750 
Q 750 597 1062 519 
Q 1375 441 1716 441 
Q 2309 441 2620 675 
Q 2931 909 2931 1356 
Q 2931 1769 2642 2001 
Q 2353 2234 1838 2234 
L 1294 2234 
L 1294 2753 
L 1863 2753 
Q 2328 2753 2575 2939 
Q 2822 3125 2822 3475 
Q 2822 3834 2567 4026 
Q 2313 4219 1838 4219 
Q 1578 4219 1281 4162 
Q 984 4106 628 3988 
L 628 4550 
Q 988 4650 1302 4700 
Q 1616 4750 1894 4750 
Q 2613 4750 3031 4423 
Q 3450 4097 3450 3541 
Q 3450 3153 3228 2886 
Q 3006 2619 2597 2516 
z
" transform="scale(0.015625)"/>
     </defs>
     <use xlink:href="#DejaVuSans-33"/>
     <use xlink:href="#DejaVuSans-32" transform="translate(63.623047 0)"/>
     <use xlink:href="#DejaVuSans-20" transform="translate(127.246094 0)"/>
     <use xlink:href="#DejaVuSans-42" transform="translate(159.033203 0)"/>
    </g>
   </g>
   <g id="text_16">
    <!-- 48 B -->
    <g style="fill: #333333" transform="translate(246.632075 101.560191) scale(0.09 -0.09)">
     <defs>
      <path id="DejaVuSans-34" d="M 2419 4116 
L 825 1625 
L 2419 1625 
L 2419 4116 
z
M 2253 4666 
L 3047 4666 
L 3047 1625 
L 3713 1625 
L 3713 1100 
L 3047 1100 
L 3047 0 
L 2419 0 
L 2419 1100 
L 313 1100 
L 313 1709 
L 2253 4666 
z
" transform="scale(0.015625)"/>
      <path id="DejaVuSans-38" d="M 2034 2216 
Q 1584 2216 1326 1975 
Q 1069 1734 1069 1313 
Q 1069 891 1326 650 
Q 1584 409 2034 409 
Q 2484 409 2743 651 
Q 3003 894 3003 1313 
Q 3003 1734 2745 1975 
Q 2488 2216 2034 2216 
z
M 1403 2484 
Q 997 2584 770 2862 
Q 544 3141 544 3541 
Q 544 4100 942 4425 
Q 1341 4750 2034 4750 
Q 2731 4750 3128 4425 
Q 3525 4100 3525 3541 
Q 3525 3141 3298 2862 
Q 3072 2584 2669 2484 
Q 3125 2378 3379 2068 
Q 3634 1759 3634 1313 
Q 3634 634 3220 271 
Q 2806 -91 2034 -91 
Q 1263 -91 848 271 
Q 434 634 434 1313 
Q 434 1759 690 2068 
Q 947 2378 1403 2484 
z
M 1172 3481 
Q 1172 3119 1398 2916 
Q 1625 2713 2034 2713 
Q 2441 2713 2670 2916 
Q 2900 3119 2900 3481 
Q 2900 3844 2670 4047 
Q 2441 4250 2034 4250 
Q 1625 4250 1398 4047 
Q 1172 3844 1172 3481 
z
" transform="scale(0.015625)"/>
     </defs>
     <use xlink:href="#DejaVuSans-34"/>
     <use xlink:href="#DejaVuSans-38" transform="translate(63.623047 0)"/>
     <use xlink:href="#DejaVuSans-20" transform="translate(127.246094 0)"/>
     <use xlink:href="#DejaVuSans-42" transform="translate(159.033203 0)"/>
    </g>
   </g>
   <g id="text_17">
    <!-- 128 B -->
    <g style="fill: #333333" transform="translate(434.741354 160.313438) scale(0.09 -0.09)">
     <use xlink:href="#DejaVuSans-31"/>
     <use xlink:href="#DejaVuSans-32" transform="translate(63.623047 0)"/>
     <use xlink:href="#DejaVuSans-38" transform="translate(127.246094 0)"/>
     <use xlink:href="#DejaVuSans-20" transform="translate(190.869141 0)"/>
     <use xlink:href="#DejaVuSans-42" transform="translate(222.65625 0)"/>
    </g>
   </g>
   <g id="text_18">
    <!-- 128 B -->
    <g style="fill: #333333" transform="translate(435.460103 219.066684) scale(0.09 -0.09)">
     <use xlink:href="#DejaVuSans-31"/>
     <use xlink:href="#DejaVuSans-32" transform="translate(63.623047 0)"/>
     <use xlink:href="#DejaVuSans-38" transform="translate(127.246094 0)"/>
     <use xlink:href="#DejaVuSans-20" transform="translate(190.869141 0)"/>
     <use xlink:href="#DejaVuSans-42" transform="translate(222.65625 0)"/>
    </g>
   </g>
   <g id="text_19">
    <!-- 104 B -->
    <g style="fill: #333333" transform="translate(379.008128 277.819931) scale(0.09 -0.09)">
     <use xlink:href="#DejaVuSans-31"/>
     <use xlink:href="#DejaVuSans-30" transform="translate(63.623047 0)"/>
     <use xlink:href="#DejaVuSans-34" transform="translate(127.246094 0)"/>
     <use xlink:href="#DejaVuSans-20" transform="translate(190.869141 0)"/>
     <use xlink:href="#DejaVuSans-42" transform="translate(222.65625 0)"/>
    </g>
   </g>
   <g id="legend_1">
    <g id="patch_14">
     <path d="M 469.747656 282.965859 
L 486.747656 282.965859 
L 486.747656 277.015859 
L 469.747656 277.015859 
z
" style="fill: #0072b2"/>
    </g>
    <g id="text_20">
     <!-- own allocation -->
     <g style="fill: #333333" transform="translate(493.547656 282.965859) scale(0.085 -0.085)">
      <use xlink:href="#DejaVuSans-6f"/>
      <use xlink:href="#DejaVuSans-77" transform="translate(61.181641 0)"/>
      <use xlink:href="#DejaVuSans-6e" transform="translate(142.96875 0)"/>
      <use xlink:href="#DejaVuSans-20" transform="translate(206.347656 0)"/>
      <use xlink:href="#DejaVuSans-61" transform="translate(238.134766 0)"/>
      <use xlink:href="#DejaVuSans-6c" transform="translate(299.414062 0)"/>
      <use xlink:href="#DejaVuSans-6c" transform="translate(327.197266 0)"/>
      <use xlink:href="#DejaVuSans-6f" transform="translate(354.980469 0)"/>
      <use xlink:href="#DejaVuSans-63" transform="translate(416.162109 0)"/>
      <use xlink:href="#DejaVuSans-61" transform="translate(471.142578 0)"/>
      <use xlink:href="#DejaVuSans-74" transform="translate(532.421875 0)"/>
      <use xlink:href="#DejaVuSans-69" transform="translate(571.630859 0)"/>
      <use xlink:href="#DejaVuSans-6f" transform="translate(599.414062 0)"/>
      <use xlink:href="#DejaVuSans-6e" transform="translate(660.595703 0)"/>
     </g>
    </g>
    <g id="patch_15">
     <path d="M 469.747656 295.442266 
L 486.747656 295.442266 
L 486.747656 289.492266 
L 469.747656 289.492266 
z
" style="fill: #0072b2; opacity: 0.4"/>
    </g>
    <g id="text_21">
     <!-- sub-allocations -->
     <g style="fill: #333333" transform="translate(493.547656 295.442266) scale(0.085 -0.085)">
      <defs>
       <path id="DejaVuSans-2d" d="M 313 2009 
L 1997 2009 
L 1997 1497 
L 313 1497 
L 313 2009 
z
" transform="scale(0.015625)"/>
      </defs>
      <use xlink:href="#DejaVuSans-73"/>
      <use xlink:href="#DejaVuSans-75" transform="translate(52.099609 0)"/>
      <use xlink:href="#DejaVuSans-62" transform="translate(115.478516 0)"/>
      <use xlink:href="#DejaVuSans-2d" transform="translate(178.955078 0)"/>
      <use xlink:href="#DejaVuSans-61" transform="translate(215.039062 0)"/>
      <use xlink:href="#DejaVuSans-6c" transform="translate(276.318359 0)"/>
      <use xlink:href="#DejaVuSans-6c" transform="translate(304.101562 0)"/>
      <use xlink:href="#DejaVuSans-6f" transform="translate(331.884766 0)"/>
      <use xlink:href="#DejaVuSans-63" transform="translate(393.066406 0)"/>
      <use xlink:href="#DejaVuSans-61" transform="translate(448.046875 0)"/>
      <use xlink:href="#DejaVuSans-74" transform="translate(509.326172 0)"/>
      <use xlink:href="#DejaVuSans-69" transform="translate(548.535156 0)"/>
      <use xlink:href="#DejaVuSans-6f" transform="translate(576.318359 0)"/>
      <use xlink:href="#DejaVuSans-6e" transform="translate(637.5 0)"/>
      <use xlink:href="#DejaVuSans-73" transform="translate(700.878906 0)"/>
     </g>
    </g>
   </g>
  </g>
 </g>
 <defs>
  <clipPath id="pfad217d2f3">
   <rect x="127.705" y="10.8" width="437.495" height="294.06"/>
  </clipPath>
 </defs>
</svg>
