<?xml version="1.0" encoding="utf-8" standalone="no"?>
<!DOCTYPE svg PUBLIC "-//W3C//DTD SVG 1.1//EN"
  "http://www.w3.org/Graphics/SVG/1.1/DTD/svg11.dtd">
<svg xmlns:xlink="http://www.w3.org/1999/xlink" width="638.777344pt" height="604.71625pt" viewBox="0 0 638.777344 604.71625" xmlns="http://www.w3.org/2000/svg" version="1.1">
 <metadata>
  <rdf:RDF xmlns:dc="http://purl.org/dc/elements/1.1/" xmlns:cc="http://creativecommons.org/ns#" xmlns:rdf="http://www.w3.org/1999/02/22-rdf-syntax-ns#">
   <cc:Work>
    <dc:type rdf:resource="http://purl.org/dc/dcmitype/StillImage"/>
    <dc:date>2026-03-27T09:43:14.900812</dc:date>
    <dc:format>image/svg+xml</dc:format>
    <dc:creator>
     <cc:Agent>
      <dc:title>Matplotlib v3.10.8, https://matplotlib.org/</dc:title>
     </cc:Agent>
    </dc:creator>
   </cc:Work>
  </rdf:RDF>
 </metadata>
 <defs>
  <style type="text/css">*{stroke-linejoin: round; stroke-linecap: butt}</style>
 </defs>
 <g id="figure_1">
  <g id="patch_1">
   <path d="M 0 604.71625 
L 638.777344 604.71625 
L 638.777344 0 
L 0 0 
z
" style="fill: #ffffff"/>
  </g>
  <g id="axes_1">
   <g id="patch_2">
    <path d="M 111.132344 563.16 
L 631.577344 563.16 
L 631.577344 7.2 
L 111.132344 7.2 
z
" style="fill: #ffffff"/>
   </g>
   <g id="matplotlib.axis_1">
    <g id="xtick_1">
     <g id="line2d_1">
      <path d="M 211.859427 563.16 
L 211.859427 7.2 
" clip-path="url(#p83bc0c8e8f)" style="fill: none; stroke: #e2e8f0; stroke-width: 0.8; stroke-linecap: square"/>
     </g>
     <g id="line2d_2">
      <defs>
       <path id="mc24d086a6f" d="M 0 0 
L 0 3.5 
" style="stroke: #000000; stroke-width: 0.8"/>
      </defs>
      <g>
       <use xlink:href="#mc24d086a6f" x="211.859427" y="563.16" style="stroke: #000000; stroke-width: 0.8"/>
      </g>
     </g>
     <g id="text_1">
      <!-- 100 ns -->
      <g transform="translate(194.953177 577.758437) scale(0.1 -0.1)">
       <defs>
        <path id="DejaVuSans-31" d="M 794 531 
L 1825 531 
L 1825 4091 
L 703 3866 
L 703 4441 
L 1819 4666 
L 2450 4666 
L 2450 531 
L 3481 531 
L 3481 0 
L 794 0 
L 794 531 
z
" transform="scale(0.015625)"/>
        <path id="DejaVuSans-30" d="M 2034 4250 
Q 1547 4250 1301 3770 
Q 1056 3291 1056 2328 
Q 1056 1369 1301 889 
Q 1547 409 2034 409 
Q 2525 409 2770 889 
Q 3016 1369 3016 2328 
Q 3016 3291 2770 3770 
Q 2525 4250 2034 4250 
z
M 2034 4750 
Q 2819 4750 3233 4129 
Q 3647 3509 3647 2328 
Q 3647 1150 3233 529 
Q 2819 -91 2034 -91 
Q 1250 -91 836 529 
Q 422 1150 422 2328 
Q 422 3509 836 4129 
Q 1250 4750 2034 4750 
z
" transform="scale(0.015625)"/>
        <path id="DejaVuSans-20" transform="scale(0.015625)"/>
        <path id="DejaVuSans-6e" d="M 3513 2113 
L 3513 0 
L 2938 0 
L 2938 2094 
Q 2938 2591 2744 2837 
Q 2550 3084 2163 3084 
Q 1697 3084 1428 2787 
Q 1159 2491 1159 1978 
L 1159 0 
L 581 0 
L 581 3500 
L 1159 3500 
L 1159 2956 
Q 1366 3272 1645 3428 
Q 1925 3584 2291 3584 
Q 2894 3584 3203 3211 
Q 3513 2838 3513 2113 
z
" transform="scale(0.015625)"/>
        <path id="DejaVuSans-73" d="M 2834 3397 
L 2834 2853 
Q 2591 2978 2328 3040 
Q 2066 3103 1784 3103 
Q 1356 3103 1142 2972 
Q 928 2841 928 2578 
Q 928 2378 1081 2264 
Q 1234 2150 1697 2047 
L 1894 2003 
Q 2506 1872 2764 1633 
Q 3022 1394 3022 966 
Q 3022 478 2636 193 
Q 2250 -91 1575 -91 
Q 1294 -91 989 -36 
Q 684 19 347 128 
L 347 722 
Q 666 556 975 473 
Q 1284 391 1588 391 
Q 1994 391 2212 530 
Q 2431 669 2431 922 
Q 2431 1156 2273 1281 
Q 2116 1406 1581 1522 
L 1381 1569 
Q 847 1681 609 1914 
Q 372 2147 372 2553 
Q 372 3047 722 3315 
Q 1072 3584 1716 3584 
Q 2034 3584 2315 3537 
Q 2597 3491 2834 3397 
z
" transform="scale(0.015625)"/>
       </defs>
       <use xlink:href="#DejaVuSans-31"/>
       <use xlink:href="#DejaVuSans-30" transform="translate(63.623047 0)"/>
       <use xlink:href="#DejaVuSans-30" transform="translate(127.246094 0)"/>
       <use xlink:href="#DejaVuSans-20" transform="translate(190.869141 0)"/>
       <use xlink:href="#DejaVuSans-6e" transform="translate(222.65625 0)"/>
       <use xlink:href="#DejaVuSans-73" transform="translate(286.035156 0)"/>
      </g>
     </g>
    </g>
    <g id="xtick_2">
     <g id="line2d_3">
      <path d="M 352.699651 563.16 
L 352.699651 7.2 
" clip-path="url(#p83bc0c8e8f)" style="fill: none; stroke: #e2e8f0; stroke-width: 0.8; stroke-linecap: square"/>
     </g>
     <g id="line2d_4">
      <g>
       <use xlink:href="#mc24d086a6f" x="352.699651" y="563.16" style="stroke: #000000; stroke-width: 0.8"/>
      </g>
     </g>
     <g id="text_2">
      <!-- 1 µs -->
      <g transform="translate(342.143401 577.758437) scale(0.1 -0.1)">
       <defs>
        <path id="DejaVuSans-b5" d="M 544 -1331 
L 544 3500 
L 1119 3500 
L 1119 1325 
Q 1119 872 1334 640 
Q 1550 409 1972 409 
Q 2434 409 2667 671 
Q 2900 934 2900 1459 
L 2900 3500 
L 3475 3500 
L 3475 806 
Q 3475 619 3529 530 
Q 3584 441 3700 441 
Q 3728 441 3778 458 
Q 3828 475 3916 513 
L 3916 50 
Q 3788 -22 3673 -56 
Q 3559 -91 3450 -91 
Q 3234 -91 3106 31 
Q 2978 153 2931 403 
Q 2775 156 2548 32 
Q 2322 -91 2016 -91 
Q 1697 -91 1473 31 
Q 1250 153 1119 397 
L 1119 -1331 
L 544 -1331 
z
" transform="scale(0.015625)"/>
       </defs>
       <use xlink:href="#DejaVuSans-31"/>
       <use xlink:href="#DejaVuSans-20" transform="translate(63.623047 0)"/>
       <use xlink:href="#DejaVuSans-b5" transform="translate(95.410156 0)"/>
       <use xlink:href="#DejaVuSans-73" transform="translate(159.033203 0)"/>
      </g>
     </g>
    </g>
    <g id="xtick_3">
     <g id="line2d_5">
      <path d="M 493.539876 563.16 
L 493.539876 7.2 
" clip-path="url(#p83bc0c8e8f)" style="fill: none; stroke: #e2e8f0; stroke-width: 0.8; stroke-linecap: square"/>
     </g>
     <g id="line2d_6">
      <g>
       <use xlink:href="#mc24d086a6f" x="493.539876" y="563.16" style="stroke: #000000; stroke-width: 0.8"/>
      </g>
     </g>
     <g id="text_3">
      <!-- 10 µs -->
      <g transform="translate(479.802376 577.758437) scale(0.1 -0.1)">
       <use xlink:href="#DejaVuSans-31"/>
       <use xlink:href="#DejaVuSans-30" transform="translate(63.623047 0)"/>
       <use xlink:href="#DejaVuSans-20" transform="translate(127.246094 0)"/>
       <use xlink:href="#DejaVuSans-b5" transform="translate(159.033203 0)"/>
       <use xlink:href="#DejaVuSans-73" transform="translate(222.65625 0)"/>
      </g>
     </g>
    </g>
    <g id="xtick_4">
     <g id="line2d_7"/>
    </g>
    <g id="xtick_5">
     <g id="line2d_8"/>
    </g>
    <g id="xtick_6">
     <g id="line2d_9"/>
    </g>
    <g id="xtick_7">
     <g id="line2d_10"/>
    </g>
    <g id="xtick_8">
     <g id="line2d_11"/>
    </g>
    <g id="xtick_9">
     <g id="line2d_12"/>
    </g>
    <g id="xtick_10">
     <g id="line2d_13"/>
    </g>
    <g id="xtick_11">
     <g id="line2d_14"/>
    </g>
    <g id="xtick_12">
     <g id="line2d_15"/>
    </g>
    <g id="xtick_13">
     <g id="line2d_16"/>
    </g>
    <g id="xtick_14">
     <g id="line2d_17"/>
    </g>
    <g id="xtick_15">
     <g id="line2d_18"/>
    </g>
    <g id="xtick_16">
     <g id="line2d_19"/>
    </g>
    <g id="xtick_17">
     <g id="line2d_20"/>
    </g>
    <g id="xtick_18">
     <g id="line2d_21"/>
    </g>
    <g id="xtick_19">
     <g id="line2d_22"/>
    </g>
    <g id="xtick_20">
     <g id="line2d_23"/>
    </g>
    <g id="xtick_21">
     <g id="line2d_24"/>
    </g>
    <g id="xtick_22">
     <g id="line2d_25"/>
    </g>
    <g id="xtick_23">
     <g id="line2d_26"/>
    </g>
    <g id="xtick_24">
     <g id="line2d_27"/>
    </g>
    <g id="xtick_25">
     <g id="line2d_28"/>
    </g>
    <g id="xtick_26">
     <g id="line2d_29"/>
    </g>
    <g id="xtick_27">
     <g id="line2d_30"/>
    </g>
    <g id="xtick_28">
     <g id="line2d_31"/>
    </g>
    <g id="xtick_29">
     <g id="line2d_32"/>
    </g>
    <g id="xtick_30">
     <g id="line2d_33"/>
    </g>
    <g id="xtick_31">
     <g id="line2d_34"/>
    </g>
    <g id="xtick_32">
     <g id="line2d_35"/>
    </g>
    <g id="xtick_33">
     <g id="line2d_36"/>
    </g>
    <g id="xtick_34">
     <g id="line2d_37"/>
    </g>
    <g id="xtick_35">
     <g id="line2d_38"/>
    </g>
    <g id="text_4">
     <!-- Time per operation (lower is better) -->
     <g transform="translate(281.994687 595.436562) scale(0.1 -0.1)">
      <defs>
       <path id="DejaVuSans-54" d="M -19 4666 
L 3928 4666 
L 3928 4134 
L 2272 4134 
L 2272 0 
L 1638 0 
L 1638 4134 
L -19 4134 
L -19 4666 
z
" transform="scale(0.015625)"/>
       <path id="DejaVuSans-69" d="M 603 3500 
L 1178 3500 
L 1178 0 
L 603 0 
L 603 3500 
z
M 603 4863 
L 1178 4863 
L 1178 4134 
L 603 4134 
L 603 4863 
z
" transform="scale(0.015625)"/>
       <path id="DejaVuSans-6d" d="M 3328 2828 
Q 3544 3216 3844 3400 
Q 4144 3584 4550 3584 
Q 5097 3584 5394 3201 
Q 5691 2819 5691 2113 
L 5691 0 
L 5113 0 
L 5113 2094 
Q 5113 2597 4934 2840 
Q 4756 3084 4391 3084 
Q 3944 3084 3684 2787 
Q 3425 2491 3425 1978 
L 3425 0 
L 2847 0 
L 2847 2094 
Q 2847 2600 2669 2842 
Q 2491 3084 2119 3084 
Q 1678 3084 1418 2786 
Q 1159 2488 1159 1978 
L 1159 0 
L 581 0 
L 581 3500 
L 1159 3500 
L 1159 2956 
Q 1356 3278 1631 3431 
Q 1906 3584 2284 3584 
Q 2666 3584 2933 3390 
Q 3200 3197 3328 2828 
z
" transform="scale(0.015625)"/>
       <path id="DejaVuSans-65" d="M 3597 1894 
L 3597 1613 
L 953 1613 
Q 991 1019 1311 708 
Q 1631 397 2203 397 
Q 2534 397 2845 478 
Q 3156 559 3463 722 
L 3463 178 
Q 3153 47 2828 -22 
Q 2503 -91 2169 -91 
Q 1331 -91 842 396 
Q 353 884 353 1716 
Q 353 2575 817 3079 
Q 1281 3584 2069 3584 
Q 2775 3584 3186 3129 
Q 3597 2675 3597 1894 
z
M 3022 2063 
Q 3016 2534 2758 2815 
Q 2500 3097 2075 3097 
Q 1594 3097 1305 2825 
Q 1016 2553 972 2059 
L 3022 2063 
z
" transform="scale(0.015625)"/>
       <path id="DejaVuSans-70" d="M 1159 525 
L 1159 -1331 
L 581 -1331 
L 581 3500 
L 1159 3500 
L 1159 2969 
Q 1341 3281 1617 3432 
Q 1894 3584 2278 3584 
Q 2916 3584 3314 3078 
Q 3713 2572 3713 1747 
Q 3713 922 3314 415 
Q 2916 -91 2278 -91 
Q 1894 -91 1617 61 
Q 1341 213 1159 525 
z
M 3116 1747 
Q 3116 2381 2855 2742 
Q 2594 3103 2138 3103 
Q 1681 3103 1420 2742 
Q 1159 2381 1159 1747 
Q 1159 1113 1420 752 
Q 1681 391 2138 391 
Q 2594 391 2855 752 
Q 3116 1113 3116 1747 
z
" transform="scale(0.015625)"/>
       <path id="DejaVuSans-72" d="M 2631 2963 
Q 2534 3019 2420 3045 
Q 2306 3072 2169 3072 
Q 1681 3072 1420 2755 
Q 1159 2438 1159 1844 
L 1159 0 
L 581 0 
L 581 3500 
L 1159 3500 
L 1159 2956 
Q 1341 3275 1631 3429 
Q 1922 3584 2338 3584 
Q 2397 3584 2469 3576 
Q 2541 3569 2628 3553 
L 2631 2963 
z
" transform="scale(0.015625)"/>
       <path id="DejaVuSans-6f" d="M 1959 3097 
Q 1497 3097 1228 2736 
Q 959 2375 959 1747 
Q 959 1119 1226 758 
Q 1494 397 1959 397 
Q 2419 397 2687 759 
Q 2956 1122 2956 1747 
Q 2956 2369 2687 2733 
Q 2419 3097 1959 3097 
z
M 1959 3584 
Q 2709 3584 3137 3096 
Q 3566 2609 3566 1747 
Q 3566 888 3137 398 
Q 2709 -91 1959 -91 
Q 1206 -91 779 398 
Q 353 888 353 1747 
Q 353 2609 779 3096 
Q 1206 3584 1959 3584 
z
" transform="scale(0.015625)"/>
       <path id="DejaVuSans-61" d="M 2194 1759 
Q 1497 1759 1228 1600 
Q 959 1441 959 1056 
Q 959 750 1161 570 
Q 1363 391 1709 391 
Q 2188 391 2477 730 
Q 2766 1069 2766 1631 
L 2766 1759 
L 2194 1759 
z
M 3341 1997 
L 3341 0 
L 2766 0 
L 2766 531 
Q 2569 213 2275 61 
Q 1981 -91 1556 -91 
Q 1019 -91 701 211 
Q 384 513 384 1019 
Q 384 1609 779 1909 
Q 1175 2209 1959 2209 
L 2766 2209 
L 2766 2266 
Q 2766 2663 2505 2880 
Q 2244 3097 1772 3097 
Q 1472 3097 1187 3025 
Q 903 2953 641 2809 
L 641 3341 
Q 956 3463 1253 3523 
Q 1550 3584 1831 3584 
Q 2591 3584 2966 3190 
Q 3341 2797 3341 1997 
z
" transform="scale(0.015625)"/>
       <path id="DejaVuSans-74" d="M 1172 4494 
L 1172 3500 
L 2356 3500 
L 2356 3053 
L 1172 3053 
L 1172 1153 
Q 1172 725 1289 603 
Q 1406 481 1766 481 
L 2356 481 
L 2356 0 
L 1766 0 
Q 1100 0 847 248 
Q 594 497 594 1153 
L 594 3053 
L 172 3053 
L 172 3500 
L 594 3500 
L 594 4494 
L 1172 4494 
z
" transform="scale(0.015625)"/>
       <path id="DejaVuSans-28" d="M 1984 4856 
Q 1566 4138 1362 3434 
Q 1159 2731 1159 2009 
Q 1159 1288 1364 580 
Q 1569 -128 1984 -844 
L 1484 -844 
Q 1016 -109 783 600 
Q 550 1309 550 2009 
Q 550 2706 781 3412 
Q 1013 4119 1484 4856 
L 1984 4856 
z
" transform="scale(0.015625)"/>
       <path id="DejaVuSans-6c" d="M 603 4863 
L 1178 4863 
L 1178 0 
L 603 0 
L 603 4863 
z
" transform="scale(0.015625)"/>
       <path id="DejaVuSans-77" d="M 269 3500 
L 844 3500 
L 1563 769 
L 2278 3500 
L 2956 3500 
L 3675 769 
L 4391 3500 
L 4966 3500 
L 4050 0 
L 3372 0 
L 2619 2869 
L 1863 0 
L 1184 0 
L 269 3500 
z
" transform="scale(0.015625)"/>
       <path id="DejaVuSans-62" d="M 3116 1747 
Q 3116 2381 2855 2742 
Q 2594 3103 2138 3103 
Q 1681 3103 1420 2742 
Q 1159 2381 1159 1747 
Q 1159 1113 1420 752 
Q 1681 391 2138 391 
Q 2594 391 2855 752 
Q 3116 1113 3116 1747 
z
M 1159 2969 
Q 1341 3281 1617 3432 
Q 1894 3584 2278 3584 
Q 2916 3584 3314 3078 
Q 3713 2572 3713 1747 
Q 3713 922 3314 415 
Q 2916 -91 2278 -91 
Q 1894 -91 1617 61 
Q 1341 213 1159 525 
L 1159 0 
L 581 0 
L 581 4863 
L 1159 4863 
L 1159 2969 
z
" transform="scale(0.015625)"/>
       <path id="DejaVuSans-29" d="M 513 4856 
L 1013 4856 
Q 1481 4119 1714 3412 
Q 1947 2706 1947 2009 
Q 1947 1309 1714 600 
Q 1481 -109 1013 -844 
L 513 -844 
Q 928 -128 1133 580 
Q 1338 1288 1338 2009 
Q 1338 2731 1133 3434 
Q 928 4138 513 4856 
z
" transform="scale(0.015625)"/>
      </defs>
      <use xlink:href="#DejaVuSans-54"/>
      <use xlink:href="#DejaVuSans-69" transform="translate(57.958984 0)"/>
      <use xlink:href="#DejaVuSans-6d" transform="translate(85.742188 0)"/>
      <use xlink:href="#DejaVuSans-65" transform="translate(183.154297 0)"/>
      <use xlink:href="#DejaVuSans-20" transform="translate(244.677734 0)"/>
      <use xlink:href="#DejaVuSans-70" transform="translate(276.464844 0)"/>
      <use xlink:href="#DejaVuSans-65" transform="translate(339.941406 0)"/>
      <use xlink:href="#DejaVuSans-72" transform="translate(401.464844 0)"/>
      <use xlink:href="#DejaVuSans-20" transform="translate(442.578125 0)"/>
      <use xlink:href="#DejaVuSans-6f" transform="translate(474.365234 0)"/>
      <use xlink:href="#DejaVuSans-70" transform="translate(535.546875 0)"/>
      <use xlink:href="#DejaVuSans-65" transform="translate(599.023438 0)"/>
      <use xlink:href="#DejaVuSans-72" transform="translate(660.546875 0)"/>
      <use xlink:href="#DejaVuSans-61" transform="translate(701.660156 0)"/>
      <use xlink:href="#DejaVuSans-74" transform="translate(762.939453 0)"/>
      <use xlink:href="#DejaVuSans-69" transform="translate(802.148438 0)"/>
      <use xlink:href="#DejaVuSans-6f" transform="translate(829.931641 0)"/>
      <use xlink:href="#DejaVuSans-6e" transform="translate(891.113281 0)"/>
      <use xlink:href="#DejaVuSans-20" transform="translate(954.492188 0)"/>
      <use xlink:href="#DejaVuSans-28" transform="translate(986.279297 0)"/>
      <use xlink:href="#DejaVuSans-6c" transform="translate(1025.292969 0)"/>
      <use xlink:href="#DejaVuSans-6f" transform="translate(1053.076172 0)"/>
      <use xlink:href="#DejaVuSans-77" transform="translate(1114.257812 0)"/>
      <use xlink:href="#DejaVuSans-65" transform="translate(1196.044922 0)"/>
      <use xlink:href="#DejaVuSans-72" transform="translate(1257.568359 0)"/>
      <use xlink:href="#DejaVuSans-20" transform="translate(1298.681641 0)"/>
      <use xlink:href="#DejaVuSans-69" transform="translate(1330.46875 0)"/>
      <use xlink:href="#DejaVuSans-73" transform="translate(1358.251953 0)"/>
      <use xlink:href="#DejaVuSans-20" transform="translate(1410.351562 0)"/>
      <use xlink:href="#DejaVuSans-62" transform="translate(1442.138672 0)"/>
      <use xlink:href="#DejaVuSans-65" transform="translate(1505.615234 0)"/>
      <use xlink:href="#DejaVuSans-74" transform="translate(1567.138672 0)"/>
      <use xlink:href="#DejaVuSans-74" transform="translate(1606.347656 0)"/>
      <use xlink:href="#DejaVuSans-65" transform="translate(1645.556641 0)"/>
      <use xlink:href="#DejaVuSans-72" transform="translate(1707.080078 0)"/>
      <use xlink:href="#DejaVuSans-29" transform="translate(1748.193359 0)"/>
     </g>
    </g>
   </g>
   <g id="matplotlib.axis_2">
    <g id="ytick_1">
     <g id="line2d_39">
      <defs>
       <path id="m16bbe6a48f" d="M 0 0 
L -3.5 0 
" style="stroke: #000000; stroke-width: 0.8"/>
      </defs>
      <g>
       <use xlink:href="#m16bbe6a48f" x="111.132344" y="519.555294" style="stroke: #000000; stroke-width: 0.8"/>
      </g>
     </g>
     <g id="text_5">
      <!-- calendar shift -->
      <g transform="translate(29.055625 523.734435) scale(0.11 -0.11)">
       <defs>
        <path id="DejaVuSans-63" d="M 3122 3366 
L 3122 2828 
Q 2878 2963 2633 3030 
Q 2388 3097 2138 3097 
Q 1578 3097 1268 2742 
Q 959 2388 959 1747 
Q 959 1106 1268 751 
Q 1578 397 2138 397 
Q 2388 397 2633 464 
Q 2878 531 3122 666 
L 3122 134 
Q 2881 22 2623 -34 
Q 2366 -91 2075 -91 
Q 1284 -91 818 406 
Q 353 903 353 1747 
Q 353 2603 823 3093 
Q 1294 3584 2113 3584 
Q 2378 3584 2631 3529 
Q 2884 3475 3122 3366 
z
" transform="scale(0.015625)"/>
        <path id="DejaVuSans-64" d="M 2906 2969 
L 2906 4863 
L 3481 4863 
L 3481 0 
L 2906 0 
L 2906 525 
Q 2725 213 2448 61 
Q 2172 -91 1784 -91 
Q 1150 -91 751 415 
Q 353 922 353 1747 
Q 353 2572 751 3078 
Q 1150 3584 1784 3584 
Q 2172 3584 2448 3432 
Q 2725 3281 2906 2969 
z
M 947 1747 
Q 947 1113 1208 752 
Q 1469 391 1925 391 
Q 2381 391 2643 752 
Q 2906 1113 2906 1747 
Q 2906 2381 2643 2742 
Q 2381 3103 1925 3103 
Q 1469 3103 1208 2742 
Q 947 2381 947 1747 
z
" transform="scale(0.015625)"/>
        <path id="DejaVuSans-68" d="M 3513 2113 
L 3513 0 
L 2938 0 
L 2938 2094 
Q 2938 2591 2744 2837 
Q 2550 3084 2163 3084 
Q 1697 3084 1428 2787 
Q 1159 2491 1159 1978 
L 1159 0 
L 581 0 
L 581 4863 
L 1159 4863 
L 1159 2956 
Q 1366 3272 1645 3428 
Q 1925 3584 2291 3584 
Q 2894 3584 3203 3211 
Q 3513 2838 3513 2113 
z
" transform="scale(0.015625)"/>
        <path id="DejaVuSans-66" d="M 2375 4863 
L 2375 4384 
L 1825 4384 
Q 1516 4384 1395 4259 
Q 1275 4134 1275 3809 
L 1275 3500 
L 2222 3500 
L 2222 3053 
L 1275 3053 
L 1275 0 
L 697 0 
L 697 3053 
L 147 3053 
L 147 3500 
L 697 3500 
L 697 3744 
Q 697 4328 969 4595 
Q 1241 4863 1831 4863 
L 2375 4863 
z
" transform="scale(0.015625)"/>
       </defs>
       <use xlink:href="#DejaVuSans-63"/>
       <use xlink:href="#DejaVuSans-61" transform="translate(54.980469 0)"/>
       <use xlink:href="#DejaVuSans-6c" transform="translate(116.259766 0)"/>
       <use xlink:href="#DejaVuSans-65" transform="translate(144.042969 0)"/>
       <use xlink:href="#DejaVuSans-6e" transform="translate(205.566406 0)"/>
       <use xlink:href="#DejaVuSans-64" transform="translate(268.945312 0)"/>
       <use xlink:href="#DejaVuSans-61" transform="translate(332.421875 0)"/>
       <use xlink:href="#DejaVuSans-72" transform="translate(393.701172 0)"/>
       <use xlink:href="#DejaVuSans-20" transform="translate(434.814453 0)"/>
       <use xlink:href="#DejaVuSans-73" transform="translate(466.601562 0)"/>
       <use xlink:href="#DejaVuSans-68" transform="translate(518.701172 0)"/>
       <use xlink:href="#DejaVuSans-69" transform="translate(582.080078 0)"/>
       <use xlink:href="#DejaVuSans-66" transform="translate(609.863281 0)"/>
       <use xlink:href="#DejaVuSans-74" transform="translate(643.318359 0)"/>
      </g>
     </g>
    </g>
    <g id="ytick_2">
     <g id="line2d_40">
      <g>
       <use xlink:href="#m16bbe6a48f" x="111.132344" y="460.961471" style="stroke: #000000; stroke-width: 0.8"/>
      </g>
     </g>
     <g id="text_6">
      <!-- time difference -->
      <g transform="translate(20.401719 465.140611) scale(0.11 -0.11)">
       <use xlink:href="#DejaVuSans-74"/>
       <use xlink:href="#DejaVuSans-69" transform="translate(39.208984 0)"/>
       <use xlink:href="#DejaVuSans-6d" transform="translate(66.992188 0)"/>
       <use xlink:href="#DejaVuSans-65" transform="translate(164.404297 0)"/>
       <use xlink:href="#DejaVuSans-20" transform="translate(225.927734 0)"/>
       <use xlink:href="#DejaVuSans-64" transform="translate(257.714844 0)"/>
       <use xlink:href="#DejaVuSans-69" transform="translate(321.191406 0)"/>
       <use xlink:href="#DejaVuSans-66" transform="translate(348.974609 0)"/>
       <use xlink:href="#DejaVuSans-66" transform="translate(384.179688 0)"/>
       <use xlink:href="#DejaVuSans-65" transform="translate(419.384766 0)"/>
       <use xlink:href="#DejaVuSans-72" transform="translate(480.908203 0)"/>
       <use xlink:href="#DejaVuSans-65" transform="translate(519.771484 0)"/>
       <use xlink:href="#DejaVuSans-6e" transform="translate(581.294922 0)"/>
       <use xlink:href="#DejaVuSans-63" transform="translate(644.673828 0)"/>
       <use xlink:href="#DejaVuSans-65" transform="translate(699.654297 0)"/>
      </g>
     </g>
    </g>
    <g id="ytick_3">
     <g id="line2d_41">
      <g>
       <use xlink:href="#m16bbe6a48f" x="111.132344" y="402.367647" style="stroke: #000000; stroke-width: 0.8"/>
      </g>
     </g>
     <g id="text_7">
      <!-- format ISO -->
      <g transform="translate(45.048594 406.546788) scale(0.11 -0.11)">
       <defs>
        <path id="DejaVuSans-49" d="M 628 4666 
L 1259 4666 
L 1259 0 
L 628 0 
L 628 4666 
z
" transform="scale(0.015625)"/>
        <path id="DejaVuSans-53" d="M 3425 4513 
L 3425 3897 
Q 3066 4069 2747 4153 
Q 2428 4238 2131 4238 
Q 1616 4238 1336 4038 
Q 1056 3838 1056 3469 
Q 1056 3159 1242 3001 
Q 1428 2844 1947 2747 
L 2328 2669 
Q 3034 2534 3370 2195 
Q 3706 1856 3706 1288 
Q 3706 609 3251 259 
Q 2797 -91 1919 -91 
Q 1588 -91 1214 -16 
Q 841 59 441 206 
L 441 856 
Q 825 641 1194 531 
Q 1563 422 1919 422 
Q 2459 422 2753 634 
Q 3047 847 3047 1241 
Q 3047 1584 2836 1778 
Q 2625 1972 2144 2069 
L 1759 2144 
Q 1053 2284 737 2584 
Q 422 2884 422 3419 
Q 422 4038 858 4394 
Q 1294 4750 2059 4750 
Q 2388 4750 2728 4690 
Q 3069 4631 3425 4513 
z
" transform="scale(0.015625)"/>
        <path id="DejaVuSans-4f" d="M 2522 4238 
Q 1834 4238 1429 3725 
Q 1025 3213 1025 2328 
Q 1025 1447 1429 934 
Q 1834 422 2522 422 
Q 3209 422 3611 934 
Q 4013 1447 4013 2328 
Q 4013 3213 3611 3725 
Q 3209 4238 2522 4238 
z
M 2522 4750 
Q 3503 4750 4090 4092 
Q 4678 3434 4678 2328 
Q 4678 1225 4090 567 
Q 3503 -91 2522 -91 
Q 1538 -91 948 565 
Q 359 1222 359 2328 
Q 359 3434 948 4092 
Q 1538 4750 2522 4750 
z
" transform="scale(0.015625)"/>
       </defs>
       <use xlink:href="#DejaVuSans-66"/>
       <use xlink:href="#DejaVuSans-6f" transform="translate(35.205078 0)"/>
       <use xlink:href="#DejaVuSans-72" transform="translate(96.386719 0)"/>
       <use xlink:href="#DejaVuSans-6d" transform="translate(135.75 0)"/>
       <use xlink:href="#DejaVuSans-61" transform="translate(233.162109 0)"/>
       <use xlink:href="#DejaVuSans-74" transform="translate(294.441406 0)"/>
       <use xlink:href="#DejaVuSans-20" transform="translate(333.650391 0)"/>
       <use xlink:href="#DejaVuSans-49" transform="translate(365.4375 0)"/>
       <use xlink:href="#DejaVuSans-53" transform="translate(394.929688 0)"/>
       <use xlink:href="#DejaVuSans-4f" transform="translate(458.40625 0)"/>
      </g>
     </g>
    </g>
    <g id="ytick_4">
     <g id="line2d_42">
      <g>
       <use xlink:href="#m16bbe6a48f" x="111.132344" y="343.773824" style="stroke: #000000; stroke-width: 0.8"/>
      </g>
     </g>
     <g id="text_8">
      <!-- normalize to UTC -->
      <g transform="translate(10.152813 347.952964) scale(0.11 -0.11)">
       <defs>
        <path id="DejaVuSans-7a" d="M 353 3500 
L 3084 3500 
L 3084 2975 
L 922 459 
L 3084 459 
L 3084 0 
L 275 0 
L 275 525 
L 2438 3041 
L 353 3041 
L 353 3500 
z
" transform="scale(0.015625)"/>
        <path id="DejaVuSans-55" d="M 556 4666 
L 1191 4666 
L 1191 1831 
Q 1191 1081 1462 751 
Q 1734 422 2344 422 
Q 2950 422 3222 751 
Q 3494 1081 3494 1831 
L 3494 4666 
L 4128 4666 
L 4128 1753 
Q 4128 841 3676 375 
Q 3225 -91 2344 -91 
Q 1459 -91 1007 375 
Q 556 841 556 1753 
L 556 4666 
z
" transform="scale(0.015625)"/>
        <path id="DejaVuSans-43" d="M 4122 4306 
L 4122 3641 
Q 3803 3938 3442 4084 
Q 3081 4231 2675 4231 
Q 1875 4231 1450 3742 
Q 1025 3253 1025 2328 
Q 1025 1406 1450 917 
Q 1875 428 2675 428 
Q 3081 428 3442 575 
Q 3803 722 4122 1019 
L 4122 359 
Q 3791 134 3420 21 
Q 3050 -91 2638 -91 
Q 1578 -91 968 557 
Q 359 1206 359 2328 
Q 359 3453 968 4101 
Q 1578 4750 2638 4750 
Q 3056 4750 3426 4639 
Q 3797 4528 4122 4306 
z
" transform="scale(0.015625)"/>
       </defs>
       <use xlink:href="#DejaVuSans-6e"/>
       <use xlink:href="#DejaVuSans-6f" transform="translate(63.378906 0)"/>
       <use xlink:href="#DejaVuSans-72" transform="translate(124.560547 0)"/>
       <use xlink:href="#DejaVuSans-6d" transform="translate(163.923828 0)"/>
       <use xlink:href="#DejaVuSans-61" transform="translate(261.335938 0)"/>
       <use xlink:href="#DejaVuSans-6c" transform="translate(322.615234 0)"/>
       <use xlink:href="#DejaVuSans-69" transform="translate(350.398438 0)"/>
       <use xlink:href="#DejaVuSans-7a" transform="translate(378.181641 0)"/>
       <use xlink:href="#DejaVuSans-65" transform="translate(430.671875 0)"/>
       <use xlink:href="#DejaVuSans-20" transform="translate(492.195312 0)"/>
       <use xlink:href="#DejaVuSans-74" transform="translate(523.982422 0)"/>
       <use xlink:href="#DejaVuSans-6f" transform="translate(563.191406 0)"/>
       <use xlink:href="#DejaVuSans-20" transform="translate(624.373047 0)"/>
       <use xlink:href="#DejaVuSans-55" transform="translate(656.160156 0)"/>
       <use xlink:href="#DejaVuSans-54" transform="translate(729.353516 0)"/>
       <use xlink:href="#DejaVuSans-43" transform="translate(784.5625 0)"/>
      </g>
     </g>
    </g>
    <g id="ytick_5">
     <g id="line2d_43">
      <g>
       <use xlink:href="#m16bbe6a48f" x="111.132344" y="285.18" style="stroke: #000000; stroke-width: 0.8"/>
      </g>
     </g>
     <g id="text_9">
      <!-- convert timezone -->
      <g transform="translate(7.677813 289.359141) scale(0.11 -0.11)">
       <defs>
        <path id="DejaVuSans-76" d="M 191 3500 
L 800 3500 
L 1894 563 
L 2988 3500 
L 3597 3500 
L 2284 0 
L 1503 0 
L 191 3500 
z
" transform="scale(0.015625)"/>
       </defs>
       <use xlink:href="#DejaVuSans-63"/>
       <use xlink:href="#DejaVuSans-6f" transform="translate(54.980469 0)"/>
       <use xlink:href="#DejaVuSans-6e" transform="translate(116.162109 0)"/>
       <use xlink:href="#DejaVuSans-76" transform="translate(179.541016 0)"/>
       <use xlink:href="#DejaVuSans-65" transform="translate(238.720703 0)"/>
       <use xlink:href="#DejaVuSans-72" transform="translate(300.244141 0)"/>
       <use xlink:href="#DejaVuSans-74" transform="translate(341.357422 0)"/>
       <use xlink:href="#DejaVuSans-20" transform="translate(380.566406 0)"/>
       <use xlink:href="#DejaVuSans-74" transform="translate(412.353516 0)"/>
       <use xlink:href="#DejaVuSans-69" transform="translate(451.5625 0)"/>
       <use xlink:href="#DejaVuSans-6d" transform="translate(479.345703 0)"/>
       <use xlink:href="#DejaVuSans-65" transform="translate(576.757812 0)"/>
       <use xlink:href="#DejaVuSans-7a" transform="translate(638.28125 0)"/>
       <use xlink:href="#DejaVuSans-6f" transform="translate(690.771484 0)"/>
       <use xlink:href="#DejaVuSans-6e" transform="translate(751.953125 0)"/>
       <use xlink:href="#DejaVuSans-65" transform="translate(815.332031 0)"/>
      </g>
     </g>
    </g>
    <g id="ytick_6">
     <g id="line2d_44">
      <g>
       <use xlink:href="#m16bbe6a48f" x="111.132344" y="226.586176" style="stroke: #000000; stroke-width: 0.8"/>
      </g>
     </g>
     <g id="text_10">
      <!-- shift (hours/mins) -->
      <g transform="translate(7.2 230.765317) scale(0.11 -0.11)">
       <defs>
        <path id="DejaVuSans-75" d="M 544 1381 
L 544 3500 
L 1119 3500 
L 1119 1403 
Q 1119 906 1312 657 
Q 1506 409 1894 409 
Q 2359 409 2629 706 
Q 2900 1003 2900 1516 
L 2900 3500 
L 3475 3500 
L 3475 0 
L 2900 0 
L 2900 538 
Q 2691 219 2414 64 
Q 2138 -91 1772 -91 
Q 1169 -91 856 284 
Q 544 659 544 1381 
z
M 1991 3584 
L 1991 3584 
z
" transform="scale(0.015625)"/>
        <path id="DejaVuSans-2f" d="M 1625 4666 
L 2156 4666 
L 531 -594 
L 0 -594 
L 1625 4666 
z
" transform="scale(0.015625)"/>
       </defs>
       <use xlink:href="#DejaVuSans-73"/>
       <use xlink:href="#DejaVuSans-68" transform="translate(52.099609 0)"/>
       <use xlink:href="#DejaVuSans-69" transform="translate(115.478516 0)"/>
       <use xlink:href="#DejaVuSans-66" transform="translate(143.261719 0)"/>
       <use xlink:href="#DejaVuSans-74" transform="translate(176.716797 0)"/>
       <use xlink:href="#DejaVuSans-20" transform="translate(215.925781 0)"/>
       <use xlink:href="#DejaVuSans-28" transform="translate(247.712891 0)"/>
       <use xlink:href="#DejaVuSans-68" transform="translate(286.726562 0)"/>
       <use xlink:href="#DejaVuSans-6f" transform="translate(350.105469 0)"/>
       <use xlink:href="#DejaVuSans-75" transform="translate(411.287109 0)"/>
       <use xlink:href="#DejaVuSans-72" transform="translate(474.666016 0)"/>
       <use xlink:href="#DejaVuSans-73" transform="translate(515.779297 0)"/>
       <use xlink:href="#DejaVuSans-2f" transform="translate(567.878906 0)"/>
       <use xlink:href="#DejaVuSans-6d" transform="translate(601.570312 0)"/>
       <use xlink:href="#DejaVuSans-69" transform="translate(698.982422 0)"/>
       <use xlink:href="#DejaVuSans-6e" transform="translate(726.765625 0)"/>
       <use xlink:href="#DejaVuSans-73" transform="translate(790.144531 0)"/>
       <use xlink:href="#DejaVuSans-29" transform="translate(842.244141 0)"/>
      </g>
     </g>
    </g>
    <g id="ytick_7">
     <g id="line2d_45">
      <g>
       <use xlink:href="#m16bbe6a48f" x="111.132344" y="167.992353" style="stroke: #000000; stroke-width: 0.8"/>
      </g>
     </g>
     <g id="text_11">
      <!-- instantiate ZDT -->
      <g transform="translate(18.940781 172.171494) scale(0.11 -0.11)">
       <defs>
        <path id="DejaVuSans-5a" d="M 359 4666 
L 4025 4666 
L 4025 4184 
L 1075 531 
L 4097 531 
L 4097 0 
L 288 0 
L 288 481 
L 3238 4134 
L 359 4134 
L 359 4666 
z
" transform="scale(0.015625)"/>
        <path id="DejaVuSans-44" d="M 1259 4147 
L 1259 519 
L 2022 519 
Q 2988 519 3436 956 
Q 3884 1394 3884 2338 
Q 3884 3275 3436 3711 
Q 2988 4147 2022 4147 
L 1259 4147 
z
M 628 4666 
L 1925 4666 
Q 3281 4666 3915 4102 
Q 4550 3538 4550 2338 
Q 4550 1131 3912 565 
Q 3275 0 1925 0 
L 628 0 
L 628 4666 
z
" transform="scale(0.015625)"/>
       </defs>
       <use xlink:href="#DejaVuSans-69"/>
       <use xlink:href="#DejaVuSans-6e" transform="translate(27.783203 0)"/>
       <use xlink:href="#DejaVuSans-73" transform="translate(91.162109 0)"/>
       <use xlink:href="#DejaVuSans-74" transform="translate(143.261719 0)"/>
       <use xlink:href="#DejaVuSans-61" transform="translate(182.470703 0)"/>
       <use xlink:href="#DejaVuSans-6e" transform="translate(243.75 0)"/>
       <use xlink:href="#DejaVuSans-74" transform="translate(307.128906 0)"/>
       <use xlink:href="#DejaVuSans-69" transform="translate(346.337891 0)"/>
       <use xlink:href="#DejaVuSans-61" transform="translate(374.121094 0)"/>
       <use xlink:href="#DejaVuSans-74" transform="translate(435.400391 0)"/>
       <use xlink:href="#DejaVuSans-65" transform="translate(474.609375 0)"/>
       <use xlink:href="#DejaVuSans-20" transform="translate(536.132812 0)"/>
       <use xlink:href="#DejaVuSans-5a" transform="translate(567.919922 0)"/>
       <use xlink:href="#DejaVuSans-44" transform="translate(636.425781 0)"/>
       <use xlink:href="#DejaVuSans-54" transform="translate(713.427734 0)"/>
      </g>
     </g>
    </g>
    <g id="ytick_8">
     <g id="line2d_46">
      <g>
       <use xlink:href="#m16bbe6a48f" x="111.132344" y="109.398529" style="stroke: #000000; stroke-width: 0.8"/>
      </g>
     </g>
     <g id="text_12">
      <!-- parse ISO -->
      <g transform="translate(51.004063 113.57767) scale(0.11 -0.11)">
       <use xlink:href="#DejaVuSans-70"/>
       <use xlink:href="#DejaVuSans-61" transform="translate(63.476562 0)"/>
       <use xlink:href="#DejaVuSans-72" transform="translate(124.755859 0)"/>
       <use xlink:href="#DejaVuSans-73" transform="translate(165.869141 0)"/>
       <use xlink:href="#DejaVuSans-65" transform="translate(217.96875 0)"/>
       <use xlink:href="#DejaVuSans-20" transform="translate(279.492188 0)"/>
       <use xlink:href="#DejaVuSans-49" transform="translate(311.279297 0)"/>
       <use xlink:href="#DejaVuSans-53" transform="translate(340.771484 0)"/>
       <use xlink:href="#DejaVuSans-4f" transform="translate(404.248047 0)"/>
      </g>
     </g>
    </g>
    <g id="ytick_9">
     <g id="line2d_47">
      <g>
       <use xlink:href="#m16bbe6a48f" x="111.132344" y="50.804706" style="stroke: #000000; stroke-width: 0.8"/>
      </g>
     </g>
     <g id="text_13">
      <!-- now() -->
      <g transform="translate(72.851094 54.983847) scale(0.11 -0.11)">
       <use xlink:href="#DejaVuSans-6e"/>
       <use xlink:href="#DejaVuSans-6f" transform="translate(63.378906 0)"/>
       <use xlink:href="#DejaVuSans-77" transform="translate(124.560547 0)"/>
       <use xlink:href="#DejaVuSans-28" transform="translate(206.347656 0)"/>
       <use xlink:href="#DejaVuSans-29" transform="translate(245.361328 0)"/>
      </g>
     </g>
    </g>
   </g>
   <g id="patch_3">
    <path d="M -140910.045229 540.812588 
L 236.624016 540.812588 
L 236.624016 531.001529 
L -140910.045229 531.001529 
z
" clip-path="url(#p83bc0c8e8f)" style="fill: #10b981"/>
   </g>
   <g id="patch_4">
    <path d="M -140910.045229 482.218765 
L 134.788935 482.218765 
L 134.788935 472.407706 
L -140910.045229 472.407706 
z
" clip-path="url(#p83bc0c8e8f)" style="fill: #10b981"/>
   </g>
   <g id="patch_5">
    <path d="M -140910.045229 423.624941 
L 176.181108 423.624941 
L 176.181108 413.813882 
L -140910.045229 413.813882 
z
" clip-path="url(#p83bc0c8e8f)" style="fill: #10b981"/>
   </g>
   <g id="patch_6">
    <path d="M -140910.045229 365.031118 
L 139.884991 365.031118 
L 139.884991 355.220059 
L -140910.045229 355.220059 
z
" clip-path="url(#p83bc0c8e8f)" style="fill: #10b981"/>
   </g>
   <g id="patch_7">
    <path d="M -140910.045229 306.437294 
L 199.600241 306.437294 
L 199.600241 296.626235 
L -140910.045229 296.626235 
z
" clip-path="url(#p83bc0c8e8f)" style="fill: #10b981"/>
   </g>
   <g id="patch_8">
    <path d="M -140910.045229 247.843471 
L 209.662217 247.843471 
L 209.662217 238.032412 
L -140910.045229 238.032412 
z
" clip-path="url(#p83bc0c8e8f)" style="fill: #10b981"/>
   </g>
   <g id="patch_9">
    <path d="M -140910.045229 189.249647 
L 276.212886 189.249647 
L 276.212886 179.438588 
L -140910.045229 179.438588 
z
" clip-path="url(#p83bc0c8e8f)" style="fill: #10b981"/>
   </g>
   <g id="patch_10">
    <path d="M -140910.045229 130.655824 
L 199.198138 130.655824 
L 199.198138 120.844765 
L -140910.045229 120.844765 
z
" clip-path="url(#p83bc0c8e8f)" style="fill: #10b981"/>
   </g>
   <g id="patch_11">
    <path d="M -140910.045229 72.062 
L 189.058739 72.062 
L 189.058739 62.250941 
L -140910.045229 62.250941 
z
" clip-path="url(#p83bc0c8e8f)" style="fill: #10b981"/>
   </g>
   <g id="patch_12">
    <path d="M -140910.045229 529.911412 
L 408.456904 529.911412 
L 408.456904 520.100353 
L -140910.045229 520.100353 
z
" clip-path="url(#p83bc0c8e8f)" style="fill: #818cf8"/>
   </g>
   <g id="patch_13">
    <path d="M -140910.045229 471.317588 
L 460.218291 471.317588 
L 460.218291 461.506529 
L -140910.045229 461.506529 
z
" clip-path="url(#p83bc0c8e8f)" style="fill: #818cf8"/>
   </g>
   <g id="patch_14">
    <path d="M -140910.045229 412.723765 
L 350.885265 412.723765 
L 350.885265 402.912706 
L -140910.045229 402.912706 
z
" clip-path="url(#p83bc0c8e8f)" style="fill: #818cf8"/>
   </g>
   <g id="patch_15">
    <path d="M -140910.045229 354.129941 
L 489.609424 354.129941 
L 489.609424 344.318882 
L -140910.045229 344.318882 
z
" clip-path="url(#p83bc0c8e8f)" style="fill: #818cf8"/>
   </g>
   <g id="patch_16">
    <path d="M -140910.045229 295.536118 
L 607.920753 295.536118 
L 607.920753 285.725059 
L -140910.045229 285.725059 
z
" clip-path="url(#p83bc0c8e8f)" style="fill: #818cf8"/>
   </g>
   <g id="patch_17">
    <path d="M -140910.045229 236.942294 
L 421.249672 236.942294 
L 421.249672 227.131235 
L -140910.045229 227.131235 
z
" clip-path="url(#p83bc0c8e8f)" style="fill: #818cf8"/>
   </g>
   <g id="patch_18">
    <path d="M -140910.045229 178.348471 
L 598.145552 178.348471 
L 598.145552 168.537412 
L -140910.045229 168.537412 
z
" clip-path="url(#p83bc0c8e8f)" style="fill: #818cf8"/>
   </g>
   <g id="patch_19">
    <path d="M -140910.045229 119.754647 
L 430.028612 119.754647 
L 430.028612 109.943588 
L -140910.045229 109.943588 
z
" clip-path="url(#p83bc0c8e8f)" style="fill: #818cf8"/>
   </g>
   <g id="patch_20">
    <path d="M -140910.045229 61.160824 
L 328.323141 61.160824 
L 328.323141 51.349765 
L -140910.045229 51.349765 
z
" clip-path="url(#p83bc0c8e8f)" style="fill: #818cf8"/>
   </g>
   <g id="patch_21">
    <path d="M -140910.045229 519.010235 
L 447.443117 519.010235 
L 447.443117 509.199176 
L -140910.045229 509.199176 
z
" clip-path="url(#p83bc0c8e8f)" style="fill: #fb923c"/>
   </g>
   <g id="patch_22">
    <path d="M -140910.045229 460.416412 
L 246.220775 460.416412 
L 246.220775 450.605353 
L -140910.045229 450.605353 
z
" clip-path="url(#p83bc0c8e8f)" style="fill: #fb923c"/>
   </g>
   <g id="patch_23">
    <path d="M -140910.045229 401.822588 
L 333.629627 401.822588 
L 333.629627 392.011529 
L -140910.045229 392.011529 
z
" clip-path="url(#p83bc0c8e8f)" style="fill: #fb923c"/>
   </g>
   <g id="patch_24">
    <path d="M -140910.045229 343.228765 
L 354.788977 343.228765 
L 354.788977 333.417706 
L -140910.045229 333.417706 
z
" clip-path="url(#p83bc0c8e8f)" style="fill: #fb923c"/>
   </g>
   <g id="patch_25">
    <path d="M -140910.045229 284.634941 
L 369.343014 284.634941 
L 369.343014 274.823882 
L -140910.045229 274.823882 
z
" clip-path="url(#p83bc0c8e8f)" style="fill: #fb923c"/>
   </g>
   <g id="patch_26">
    <path d="M -140910.045229 226.041118 
L 449.284741 226.041118 
L 449.284741 216.230059 
L -140910.045229 216.230059 
z
" clip-path="url(#p83bc0c8e8f)" style="fill: #fb923c"/>
   </g>
   <g id="patch_27">
    <path d="M -140910.045229 167.447294 
L 335.031445 167.447294 
L 335.031445 157.636235 
L -140910.045229 157.636235 
z
" clip-path="url(#p83bc0c8e8f)" style="fill: #fb923c"/>
   </g>
   <g id="patch_28">
    <path d="M -140910.045229 108.853471 
L 537.134815 108.853471 
L 537.134815 99.042412 
L -140910.045229 99.042412 
z
" clip-path="url(#p83bc0c8e8f)" style="fill: #fb923c"/>
   </g>
   <g id="patch_29">
    <path d="M -140910.045229 50.259647 
L 349.439077 50.259647 
L 349.439077 40.448588 
L -140910.045229 40.448588 
z
" clip-path="url(#p83bc0c8e8f)" style="fill: #fb923c"/>
   </g>
   <g id="patch_30">
    <path d="M -140910.045229 508.109059 
L 381.437258 508.109059 
L 381.437258 498.298 
L -140910.045229 498.298 
z
" clip-path="url(#p83bc0c8e8f)" style="fill: #94a3b8"/>
   </g>
   <g id="patch_31">
    <path d="M -140910.045229 449.515235 
L 140.484366 449.515235 
L 140.484366 439.704176 
L -140910.045229 439.704176 
z
" clip-path="url(#p83bc0c8e8f)" style="fill: #94a3b8"/>
   </g>
   <g id="patch_32">
    <path d="M -140910.045229 390.921412 
L 328.403857 390.921412 
L 328.403857 381.110353 
L -140910.045229 381.110353 
z
" clip-path="url(#p83bc0c8e8f)" style="fill: #94a3b8"/>
   </g>
   <g id="patch_33">
    <path d="M -140910.045229 332.327588 
L 251.894077 332.327588 
L 251.894077 322.516529 
L -140910.045229 322.516529 
z
" clip-path="url(#p83bc0c8e8f)" style="fill: #94a3b8"/>
   </g>
   <g id="patch_34">
    <path d="M -140910.045229 273.733765 
L 262.271676 273.733765 
L 262.271676 263.922706 
L -140910.045229 263.922706 
z
" clip-path="url(#p83bc0c8e8f)" style="fill: #94a3b8"/>
   </g>
   <g id="patch_35">
    <path d="M -140910.045229 215.139941 
L 147.003933 215.139941 
L 147.003933 205.328882 
L -140910.045229 205.328882 
z
" clip-path="url(#p83bc0c8e8f)" style="fill: #94a3b8"/>
   </g>
   <g id="patch_36">
    <path d="M -140910.045229 156.546118 
L 259.963442 156.546118 
L 259.963442 146.735059 
L -140910.045229 146.735059 
z
" clip-path="url(#p83bc0c8e8f)" style="fill: #94a3b8"/>
   </g>
   <g id="patch_37">
    <path d="M -140910.045229 97.952294 
L 217.887248 97.952294 
L 217.887248 88.141235 
L -140910.045229 88.141235 
z
" clip-path="url(#p83bc0c8e8f)" style="fill: #94a3b8"/>
   </g>
   <g id="patch_38">
    <path d="M -140910.045229 39.358471 
L 239.97415 39.358471 
L 239.97415 29.547412 
L -140910.045229 29.547412 
z
" clip-path="url(#p83bc0c8e8f)" style="fill: #94a3b8"/>
   </g>
   <g id="legend_1">
    <g id="patch_39">
     <path d="M 295.192969 552.080312 
L 315.192969 552.080312 
L 315.192969 545.080312 
L 295.192969 545.080312 
z
" style="fill: #10b981"/>
    </g>
    <g id="text_14">
     <!-- whenever -->
     <g transform="translate(323.192969 552.080312) scale(0.1 -0.1)">
      <use xlink:href="#DejaVuSans-77"/>
      <use xlink:href="#DejaVuSans-68" transform="translate(81.787109 0)"/>
      <use xlink:href="#DejaVuSans-65" transform="translate(145.166016 0)"/>
      <use xlink:href="#DejaVuSans-6e" transform="translate(206.689453 0)"/>
      <use xlink:href="#DejaVuSans-65" transform="translate(270.068359 0)"/>
      <use xlink:href="#DejaVuSans-76" transform="translate(331.591797 0)"/>
      <use xlink:href="#DejaVuSans-65" transform="translate(390.771484 0)"/>
      <use xlink:href="#DejaVuSans-72" transform="translate(452.294922 0)"/>
     </g>
    </g>
    <g id="patch_40">
     <path d="M 392.535156 552.080312 
L 412.535156 552.080312 
L 412.535156 545.080312 
L 392.535156 545.080312 
z
" style="fill: #818cf8"/>
    </g>
    <g id="text_15">
     <!-- Pendulum -->
     <g transform="translate(420.535156 552.080312) scale(0.1 -0.1)">
      <defs>
       <path id="DejaVuSans-50" d="M 1259 4147 
L 1259 2394 
L 2053 2394 
Q 2494 2394 2734 2622 
Q 2975 2850 2975 3272 
Q 2975 3691 2734 3919 
Q 2494 4147 2053 4147 
L 1259 4147 
z
M 628 4666 
L 2053 4666 
Q 2838 4666 3239 4311 
Q 3641 3956 3641 3272 
Q 3641 2581 3239 2228 
Q 2838 1875 2053 1875 
L 1259 1875 
L 1259 0 
L 628 0 
L 628 4666 
z
" transform="scale(0.015625)"/>
      </defs>
      <use xlink:href="#DejaVuSans-50"/>
      <use xlink:href="#DejaVuSans-65" transform="translate(56.677734 0)"/>
      <use xlink:href="#DejaVuSans-6e" transform="translate(118.201172 0)"/>
      <use xlink:href="#DejaVuSans-64" transform="translate(181.580078 0)"/>
      <use xlink:href="#DejaVuSans-75" transform="translate(245.056641 0)"/>
      <use xlink:href="#DejaVuSans-6c" transform="translate(308.435547 0)"/>
      <use xlink:href="#DejaVuSans-75" transform="translate(336.21875 0)"/>
      <use xlink:href="#DejaVuSans-6d" transform="translate(399.597656 0)"/>
     </g>
    </g>
    <g id="patch_41">
     <path d="M 490.235156 552.080312 
L 510.235156 552.080312 
L 510.235156 545.080312 
L 490.235156 545.080312 
z
" style="fill: #fb923c"/>
    </g>
    <g id="text_16">
     <!-- Arrow -->
     <g transform="translate(518.235156 552.080312) scale(0.1 -0.1)">
      <defs>
       <path id="DejaVuSans-41" d="M 2188 4044 
L 1331 1722 
L 3047 1722 
L 2188 4044 
z
M 1831 4666 
L 2547 4666 
L 4325 0 
L 3669 0 
L 3244 1197 
L 1141 1197 
L 716 0 
L 50 0 
L 1831 4666 
z
" transform="scale(0.015625)"/>
      </defs>
      <use xlink:href="#DejaVuSans-41"/>
      <use xlink:href="#DejaVuSans-72" transform="translate(68.408203 0)"/>
      <use xlink:href="#DejaVuSans-72" transform="translate(107.771484 0)"/>
      <use xlink:href="#DejaVuSans-6f" transform="translate(146.634766 0)"/>
      <use xlink:href="#DejaVuSans-77" transform="translate(207.816406 0)"/>
     </g>
    </g>
    <g id="patch_42">
     <path d="M 567.194531 552.080312 
L 587.194531 552.080312 
L 587.194531 545.080312 
L 567.194531 545.080312 
z
" style="fill: #94a3b8"/>
    </g>
    <g id="text_17">
     <!-- stdlib -->
     <g transform="translate(595.194531 552.080312) scale(0.1 -0.1)">
      <use xlink:href="#DejaVuSans-73"/>
      <use xlink:href="#DejaVuSans-74" transform="translate(52.099609 0)"/>
      <use xlink:href="#DejaVuSans-64" transform="translate(91.308594 0)"/>
      <use xlink:href="#DejaVuSans-6c" transform="translate(154.785156 0)"/>
      <use xlink:href="#DejaVuSans-69" transform="translate(182.568359 0)"/>
      <use xlink:href="#DejaVuSans-62" transform="translate(210.351562 0)"/>
     </g>
    </g>
   </g>
  </g>
 </g>
 <defs>
  <clipPath id="p83bc0c8e8f">
   <rect x="111.132344" y="7.2" width="520.445" height="555.96"/>
  </clipPath>
 </defs>
</svg>
